<svg id="Group_1127" data-name="Group 1127" xmlns="http://www.w3.org/2000/svg" width="40" height="40" viewBox="0 0 40 40">
  <circle id="Ellipse_25" data-name="Ellipse 25" cx="20" cy="20" r="20" fill="#e63e30"/>
  <path id="Path_3406" data-name="Path 3406" d="M3.56-1.4A1.519,1.519,0,0,0,5.08.12,1.519,1.519,0,0,0,6.6-1.4V-12.68A1.519,1.519,0,0,0,5.08-14.2H5.04a5.506,5.506,0,0,0-1.44.26l-1.98.58A1.363,1.363,0,0,0,.6-12.04a1.349,1.349,0,0,0,1.34,1.32,2.518,2.518,0,0,0,.54-.08l1.08-.28Z" transform="translate(16 27)" fill="#fff"/>
</svg>
