<svg id="Group_1126" data-name="Group 1126" xmlns="http://www.w3.org/2000/svg" width="40" height="40" viewBox="0 0 40 40">
  <circle id="Ellipse_25" data-name="Ellipse 25" cx="20" cy="20" r="20" fill="#e63e30"/>
  <path id="Path_3407" data-name="Path 3407" d="M.86-1.46A1.477,1.477,0,0,0,2.52,0h7.6a1.323,1.323,0,0,0,1.34-1.32,1.34,1.34,0,0,0-1.34-1.34H5.24L7.52-4.42C10-6.34,11.2-7.5,11.2-9.84v-.04c0-2.62-1.92-4.32-4.82-4.32a5.512,5.512,0,0,0-4.56,2.06,1.541,1.541,0,0,0-.36.96,1.391,1.391,0,0,0,1.4,1.4,1.406,1.406,0,0,0,1.04-.44,2.957,2.957,0,0,1,2.28-1.22A1.717,1.717,0,0,1,8.06-9.62c0,1.16-.68,1.94-2.42,3.36L1.66-3A1.944,1.944,0,0,0,.86-1.46Z" transform="translate(14 27)" fill="#fff"/>
</svg>
