<svg id="Group_923" data-name="Group 923" xmlns="http://www.w3.org/2000/svg" width="40" height="40" viewBox="0 0 40 40">
  <circle id="Ellipse_25" data-name="Ellipse 25" cx="20" cy="20" r="20" fill="#e63e30"/>
  <path id="Path_3408" data-name="Path 3408" d="M6.22.24c3.12,0,5.04-1.94,5.04-4.58v-.04c0-2.6-1.86-3.6-3.76-3.92l2.74-2.62a2.233,2.233,0,0,0,.92-1.72A1.394,1.394,0,0,0,9.6-14H2.78a1.332,1.332,0,0,0-1.32,1.32,1.332,1.332,0,0,0,1.32,1.32h4.3L4.36-8.62A1.739,1.739,0,0,0,3.7-7.36,1.332,1.332,0,0,0,5.02-6.04H5.5c1.72,0,2.74.64,2.74,1.78v.04a1.756,1.756,0,0,1-1.98,1.7A4,4,0,0,1,3.52-3.56a1.463,1.463,0,0,0-.98-.38A1.5,1.5,0,0,0,1.06-2.46a1.519,1.519,0,0,0,.52,1.1A6.845,6.845,0,0,0,6.22.24Z" transform="translate(14 27)" fill="#fff"/>
</svg>
