<svg id="Group_1128" data-name="Group 1128" xmlns="http://www.w3.org/2000/svg" xmlns:xlink="http://www.w3.org/1999/xlink" width="224.46" height="177.191" viewBox="0 0 224.46 177.191">
  <defs>
    <clipPath id="clip-path">
      <rect id="Rectangle_1487" data-name="Rectangle 1487" width="165.328" height="153.736" fill="none"/>
    </clipPath>
    <clipPath id="clip-path-10">
      <rect id="Rectangle_1497" data-name="Rectangle 1497" width="37.448" height="22.065" fill="none"/>
    </clipPath>
    <clipPath id="clip-path-11">
      <rect id="Rectangle_1498" data-name="Rectangle 1498" width="42.705" height="30.439" fill="none"/>
    </clipPath>
  </defs>
  <g id="Group_1059" data-name="Group 1059" transform="translate(29.448)">
    <g id="Group_1042" data-name="Group 1042">
      <g id="Group_1041" data-name="Group 1041" clip-path="url(#clip-path)">
        <path id="Path_959" data-name="Path 959" d="M148.167,91.326,134,51.877h-1.389l-2.5.831-.279-1.666,2.222-.277,1.668-.833-1.112-2.5-2.778.279L129,46.6l2.5-.556V44.375l-3.335-9.725A7.108,7.108,0,0,0,124,32.43a25.749,25.749,0,0,0-5,0l-.277,5-13.336,2.22-1.387-1.666L102.6,34.93l-13.89,2.222S76.766,24.928,62.875,27.429s-21.393,15.28-22.5,18.891L8.145,51.6s-5.278,2.222-5.557,5.28S2.311,115.5,2.311,115.5s1.666,6.667,5.834,7.223,5,1.389,7.223,0,4.168-5,4.168-5l1.389-2.5-.556-16.115s11.947,10.835,20.837,14.169,23.615,6.946,35.283,5,25.56-8.891,30.838-13.336,12.224-12.778,13.89-15.836,3.891-8.333,3.891-8.333l5.278,13.89s1.945,4.724,4.724,5.557,7.223,2.222,10.556-1.666,2.5-7.225,2.5-7.225M96.385,41.432a2.12,2.12,0,0,1,.5-.42,3.881,3.881,0,0,1,.663-.324.543.543,0,0,1,.43.056l.006.008a1.305,1.305,0,0,1,.293-.058.907.907,0,0,1,.8.43,1.239,1.239,0,0,1,.178.7,1.807,1.807,0,0,1-.746,1.428,1.425,1.425,0,0,1-.845.252,1.64,1.64,0,0,1-.645-.143,1.809,1.809,0,0,1-.657-.453,1.072,1.072,0,0,1-.289-.744,1.265,1.265,0,0,1,.316-.734M68.151,55.324a2.221,2.221,0,0,1-.585.978,1.141,1.141,0,0,1-.589.254.487.487,0,0,1-.494-.031,4.644,4.644,0,0,1-.446-.36.492.492,0,0,1-.052-.01.651.651,0,0,1-.508-.729,1.469,1.469,0,0,1-.141-.543,1.164,1.164,0,0,1,.087-.494A1.074,1.074,0,0,1,65.9,53.5a1.128,1.128,0,0,1,.926-.064,1.638,1.638,0,0,1,.624.041,1.184,1.184,0,0,1,.785.729,1.65,1.65,0,0,1-.087,1.114M79.36,101.913c-.112.006-.221.021-.333.029a.689.689,0,0,1-.229.132,31.665,31.665,0,0,1-6.632,1.42c-.384.138-.767.281-1.147.432-.45.178-.814-.265-.854-.653-.176-1.6-.748-3.129-1.019-4.716a.759.759,0,0,1-.054-.376c-.012-.093-.029-.186-.039-.279a.681.681,0,0,1,.676-.676.631.631,0,0,1,.471.2c2.685-.771,5.5-.969,8.24-1.476a.7.7,0,0,1,.831.473,21.519,21.519,0,0,1,.765,4.811c.045.382-.345.653-.676.676m6.3-26.517c3.4-.56,6.907-.715,10.188-1.852.825-.287,1.178,1.021.36,1.3-3.28,1.137-6.785,1.292-10.188,1.852-.853.14-1.217-1.164-.36-1.3m15.553,28.554a95.873,95.873,0,0,0-10.006,1.829c-.851.188-1.209-1.116-.36-1.306a99.584,99.584,0,0,1,10.366-1.876c.866-.1.856,1.256,0,1.352M106.143,56.3a10.922,10.922,0,0,1-2.561,1.449,7.6,7.6,0,0,1-2.79.651,2.533,2.533,0,0,1-2.2-.969,3.173,3.173,0,0,1-.277-2.453.53.53,0,0,1,.093-.622c.039-.043.089-.076.132-.116a.486.486,0,0,1,.19-.167,6.487,6.487,0,0,1,1.724-.911,15.41,15.41,0,0,1,2.829-.777,12.487,12.487,0,0,1,2.56-.234,3.337,3.337,0,0,1,1.835.451c1.595,1.139-.651,3.009-1.538,3.7" transform="translate(2.167 25.4)" fill="#e7d3bd"/>
        <path id="Path_960" data-name="Path 960" d="M9.414,71.037a2.387,2.387,0,0,0-2.926-.205,2.452,2.452,0,0,0-.7,3.261.252.252,0,0,0,.178.126,2.38,2.38,0,0,0,1.321.882,2.442,2.442,0,0,0,2.649-1.234,2.407,2.407,0,0,0-.525-2.829m-.667,3.3a.29.29,0,0,0-.027-.1q-.212-.465-.424-.926a.276.276,0,0,0-.374-.1.548.548,0,0,1-.814-.653.567.567,0,0,1,.076-.134,1,1,0,0,0,.839.159,2.364,2.364,0,0,1,.335-.085l.066,0s.081.006.06,0a.1.1,0,0,1,.074.043.261.261,0,0,1,.006.157,1.248,1.248,0,0,1-.132.326.278.278,0,0,0,.1.376q.291.131.581.267a.282.282,0,0,0,.349-.072,1.9,1.9,0,0,1-.713.74m.823-1c-.014.043-.035.081-.052.122a.26.26,0,0,0-.13-.265c-.12-.054-.238-.109-.357-.165a1.05,1.05,0,0,0,.083-.486.654.654,0,0,0-.608-.591,1.222,1.222,0,0,0-.4.045c-.06.014-.118.031-.176.046l-.1.029-.017.006H7.8a.443.443,0,0,1-.072,0s-.085-.01-.043,0a.265.265,0,0,1-.056-.014s-.079-.031-.039-.01l-.041-.023-.01-.008a.273.273,0,0,0-.4-.279A1.1,1.1,0,0,0,7.916,73.8l.329.721c.006.012.017.017.023.027a1.765,1.765,0,0,1-.533.068A1.889,1.889,0,0,1,6,72.829l0-.017a1.84,1.84,0,0,1,.548-1.329,1.868,1.868,0,0,1,2.269-.227,1.9,1.9,0,0,1,.756,2.081" transform="translate(5.108 66.03)" fill="#886429"/>
        <path id="Path_961" data-name="Path 961" d="M7.557,69.958a2.211,2.211,0,0,0-.341-.62.959.959,0,0,0,.306-.535.43.43,0,0,0-.157-.446l-1.442-.891c-.386-.24-.73.44-.345.678l.913.564a.313.313,0,0,0-.417.11.436.436,0,0,0,.027.517.858.858,0,0,0,.074.052l0,.008a1.312,1.312,0,0,1,.738,1.536.681.681,0,0,1-.217.306.326.326,0,0,1-.262.074.476.476,0,0,1-.3-.188.357.357,0,0,1-.072-.293.372.372,0,0,0-.341-.4c-.2,0-.322.182-.339.4a1.211,1.211,0,0,0,.787,1.215A1.046,1.046,0,0,0,7.41,71.5a1.9,1.9,0,0,0,.147-1.544" transform="translate(5.043 63.206)" fill="#886429"/>
        <path id="Path_962" data-name="Path 962" d="M7.293,69.712a2.5,2.5,0,0,1-.7-1.035l.56-.225a.424.424,0,0,0,.2-.579l-.43-1.06c.043-.008.087-.014.132-.019a.379.379,0,0,0,.339-.4,2.088,2.088,0,0,0-.3-1.035.394.394,0,0,0-.052-.461l-.38-.417c.068-.093.134-.188.2-.281.275-.389-.2-.949-.481-.556-.141.2-.281.4-.42.595a.446.446,0,0,0,0,.556l.01.012a.43.43,0,0,0,.169.618,1.008,1.008,0,0,1,.515.636l-.234.035a.406.406,0,0,0-.295.593c.155.384.312.767.467,1.151l-.529.213a.414.414,0,0,0-.238.484,3.519,3.519,0,0,0,.7,1.414.712.712,0,0,1-.574-.14c-.366-.279-.707.4-.343.68a1.3,1.3,0,0,0,1.75-.167.438.438,0,0,0-.07-.618" transform="translate(5.117 59.55)" fill="#886429"/>
        <path id="Path_963" data-name="Path 963" d="M9.685,71.693a1.694,1.694,0,0,0-.236-.5.677.677,0,0,0,.211-.273c.262-.649-.291-1.1-.748-1.432-.618-.451.045-1.337.01-1.967a1.406,1.406,0,0,0-.234-.725,1.185,1.185,0,0,0-.434-1.908.394.394,0,0,0-.209.76c.283.083.209.7-.085.713a.394.394,0,0,0,0,.787c.3.035.151.715.1.872a2.665,2.665,0,0,0-.186,1.3,1.444,1.444,0,0,0,.682.884c.116.081.327.178.357.335.016.078-.012.068-.13.025a2.786,2.786,0,0,0-.295-.147c-.017-.012-.035-.019-.052-.033l0,.006c-.033-.014-.06-.033-.093-.045-.448-.176-.63.477-.3.719a1.575,1.575,0,0,0,.389.205.954.954,0,0,1,.4,1.271.587.587,0,0,1-.684.314.507.507,0,0,1-.306-.608c.213-.455-.465-.856-.68-.4a1.284,1.284,0,0,0,2.015,1.486,1.62,1.62,0,0,0,.5-1.633" transform="translate(6.602 60.816)" fill="#886429"/>
        <path id="Path_964" data-name="Path 964" d="M92.972,25.389A2.135,2.135,0,0,0,92.023,25a2.106,2.106,0,0,0-1.36-1.3,2.008,2.008,0,0,0-2.42,1.374,1.109,1.109,0,0,1-.058.118,1.591,1.591,0,0,0-.211-.248,2.007,2.007,0,0,0-2.782,0q-1.3,1.25-2.676,2.424-.686.587-1.389,1.153c-.535.432-.839.668-1.275,1a64.372,64.372,0,0,1-6.094,4.059,1.979,1.979,0,0,0-.789.909l-.019.015a4.4,4.4,0,0,0-.457.564,3.6,3.6,0,0,0-.434.893,3.889,3.889,0,0,0-.182,1,3.6,3.6,0,0,0,.091.988,1.557,1.557,0,0,0,.068.252,4.969,4.969,0,0,0,.291.676c.023.041.056.076.083.116a4.983,4.983,0,0,0,.258.587,1.947,1.947,0,0,0,.184.287,4.662,4.662,0,0,0,.5.618,3.383,3.383,0,0,0,.926.657,5.5,5.5,0,0,0,.761.3,5.587,5.587,0,0,0,.822.134,2.958,2.958,0,0,0,.717,0,4.58,4.58,0,0,0,1.166-.244,6.056,6.056,0,0,0,.794-.355,5.325,5.325,0,0,0,.694-.51,3.083,3.083,0,0,0,.308-.308c.448-.279.9-.56,1.335-.851a1.931,1.931,0,0,0,1.279-.231,40.71,40.71,0,0,0,7.992-6.138,1.954,1.954,0,0,0,.543-1.61c.027-.027.056-.05.083-.078a12.279,12.279,0,0,0,2.707-3.325,1.992,1.992,0,0,0-.508-2.538" transform="translate(67.38 22.155)" fill="#1a4564"/>
        <path id="Path_965" data-name="Path 965" d="M62.227,10.287l.1.054.012,0c-.112-.074-.138-.079-.114-.058" transform="translate(58.334 9.635)" fill="#1a4564"/>
        <path id="Path_966" data-name="Path 966" d="M62.426,10.351l.006,0c.107.023.238,0-.006,0" transform="translate(58.528 9.705)" fill="#1a4564"/>
        <path id="Path_967" data-name="Path 967" d="M61.991,10.068h0" transform="translate(58.111 9.426)" fill="#1a4564"/>
        <path id="Path_968" data-name="Path 968" d="M68.854,15.221l.027-.008.048-.025.037-.023c.027-.025,0-.023-.112.056" transform="translate(64.555 14.205)" fill="#1a4564"/>
        <path id="Path_969" data-name="Path 969" d="M69.142,14.683l0-.016a.621.621,0,0,0,.006.109l0-.093" transform="translate(64.823 13.751)" fill="#1a4564"/>
        <path id="Path_970" data-name="Path 970" d="M68.819,14.094l-.01-.01-.037-.027-.012-.01c-.031-.019-.031-.012.058.047" transform="translate(64.45 13.162)" fill="#1a4564"/>
        <path id="Path_971" data-name="Path 971" d="M69.139,14.906l.006-.017c0-.033.008-.068.01-.1-.012,0-.021.043-.016.114" transform="translate(64.82 13.868)" fill="#1a4564"/>
        <path id="Path_972" data-name="Path 972" d="M103.21,44.928a15.931,15.931,0,0,0-6.222-5.148,1.515,1.515,0,0,0-.575-.134c-.546-.5-1.089-1-1.637-1.5q-5.542-5.028-11.2-9.928a1.153,1.153,0,0,0-.876-.3c-.393-.366-.787-.729-1.172-1.093q-3.255-3.072-6.508-6.146a1.113,1.113,0,0,0-1.285-.215c-.2-.167-.384-.339-.579-.506q2.13-.738,4.265-1.474A11.754,11.754,0,0,0,81.167,16.8c2.22-1.821,1.6-4.966,1.048-7.407-.593-2.612-1.424-5.929-3.583-7.719-2-1.659-4.921-1.686-6.51.533-1.841,2.571-.659,5.629.781,8.072a27.41,27.41,0,0,1-5.861,1.969,10.683,10.683,0,0,0-5.4,3.259,1.419,1.419,0,0,0-.426.389,4,4,0,0,0-.209,3.922,3.49,3.49,0,0,0,.357.6,1.009,1.009,0,0,0,.378.746q5.9,5.138,12.017,10.021,10.463,9.385,21.317,18.318c1.164.957,2.844-.7,1.67-1.67-.039-.033-.077-.066-.116-.1a1.178,1.178,0,0,0,.1-.417q1.412.808,2.778,1.7a1.189,1.189,0,0,0,1.614-.422,1.208,1.208,0,0,0-.422-1.616c-.041-.027-.085-.05-.126-.077a1.412,1.412,0,0,0,.143-.141,2.638,2.638,0,0,1,.761,1.031,3.434,3.434,0,0,1,.05.349,1.187,1.187,0,0,0,1.938.876,1.016,1.016,0,0,0,.42-.031,1.23,1.23,0,0,0,.866-1.139,3.333,3.333,0,0,0-1.55-2.92M66.069,18.249v.016a.128.128,0,0,1-.017.074,2.714,2.714,0,0,1-.1.345c-.027.05-.054.1-.083.153s-.047.072-.07.109c-.079.07-.149.169-.225.238a1.013,1.013,0,0,1-.081.07l-.025.019a3.06,3.06,0,0,1-.327.19,1.233,1.233,0,0,0-.114.054l.031-.019a3.117,3.117,0,0,1-.349.1l-.095.017-.029,0a2.828,2.828,0,0,1-.314,0c-.062,0-.126-.016-.188-.016h.06a2.357,2.357,0,0,1-.277-.078l.035.021c-.014-.01-.031-.015-.048-.025h-.006a.357.357,0,0,1-.095-.052l-.052-.027c-.1-.062-.308-.269-.039-.01-.081-.078-.171-.145-.248-.227a.671.671,0,0,1-.05-.064.975.975,0,0,0,.273-.316,1.17,1.17,0,0,0,.12-.909,1.277,1.277,0,0,1-.041-.165,1.448,1.448,0,0,1,0-.159.959.959,0,0,0,.775-.327,1.247,1.247,0,0,1,.132-.136c-.05.043-.017-.014.06-.062h0l.031-.033-.006,0,.006,0,.019-.017-.017.017a.341.341,0,0,0,.058-.019l.006,0a.211.211,0,0,1,.1-.031c.037-.008.072-.016.109-.025.1,0,.205,0,.308,0l.052.016c.05.012.1.027.149.043l-.043-.027c.016.012.035.019.05.029l.014,0c.07.023.109.056.093.056.039.021.076.043.112.066s.046.041.068.062a1.3,1.3,0,0,0,.128.145c-.023-.017-.027-.025-.045-.039l.008.008a2.017,2.017,0,0,1,.1.192L66,17.56c.025.081.048.165.066.248a.957.957,0,0,0,.023.126l-.016-.048a3.257,3.257,0,0,1,0,.337c.008-.025.01-.041.021-.078a.907.907,0,0,0-.021.1M77.162,28.27l-.012.037a.177.177,0,0,0,0,.072.185.185,0,0,1-.006-.054,1.85,1.85,0,0,0-.062.219c-.016.031-.033.062-.05.093a.422.422,0,0,1-.029.043l0,.006c-.035.037-.07.072-.107.107a.155.155,0,0,1-.033.029l-.153.1a.266.266,0,0,1-.085.048h0a.326.326,0,0,0-.058.029l.031-.021c-.037.012-.076.023-.114.033l-.072.015c-.048,0-.095,0-.143,0l-.035-.012-.1-.052a.946.946,0,0,0-.163-.076,1.242,1.242,0,0,0-.676-.562c-.023-.012-.085-.037-.107-.048-.052-.031-.1-.07-.159-.1l-.014-.012-.058-.058c0-.047,0-.093,0-.141a2.318,2.318,0,0,1,.087-.316,2.56,2.56,0,0,1,.149-.254c.05-.056.1-.109.157-.159a2.3,2.3,0,0,1,.283-.167c-.052.021-.107.045-.159.068a1.247,1.247,0,0,0,.653-.521l.006-.01a3.044,3.044,0,0,1,.264.157l.006,0,.014.01c.035.025.07.054.1.076-.029-.017-.041-.025-.06-.039.083.079.167.153.244.238.029.031.056.064.085.095.064.1.128.2.184.3.019.033.035.066.052.1.025.087.072.186.093.267.012.045.023.091.033.136l0,.027a.666.666,0,0,1,0-.068c0,.029,0,.058,0,.087a.577.577,0,0,1,0,.089c0,.045.006.089.006.132l0,0c.01,0,.016.012,0,.06" transform="translate(56.815 0.45)" fill="#1a4564"/>
        <path id="Path_973" data-name="Path 973" d="M62.9,10.327l.014,0c.11-.039.174-.118-.014,0" transform="translate(58.971 9.621)" fill="#1a4564"/>
        <path id="Path_974" data-name="Path 974" d="M63.416,9.752v0a.578.578,0,0,0,.017-.087V9.638c-.023.091-.025.124-.017.114" transform="translate(59.452 9.036)" fill="#1a4564"/>
        <path id="Path_975" data-name="Path 975" d="M63.356,9.207c-.062-.093-.128-.114,0,0" transform="translate(59.332 8.559)" fill="#1a4564"/>
        <path id="Path_976" data-name="Path 976" d="M63.44,9.526v-.01c-.008-.12-.066-.2,0,.01" transform="translate(59.45 8.809)" fill="#1a4564"/>
        <path id="Path_977" data-name="Path 977" d="M62.735,9.042l0,0c-.021.019-.041.041-.06.062l.062-.064" transform="translate(58.76 8.477)" fill="#1a4564"/>
        <path id="Path_978" data-name="Path 978" d="M63.134,9.018l-.008,0a.453.453,0,0,0,.112.062c-.035-.019-.072-.039-.1-.06" transform="translate(59.184 8.453)" fill="#1a4564"/>
        <path id="Path_979" data-name="Path 979" d="M62.867,9l-.008,0c-.033.01-.066.021-.1.033l-.015.01c.108-.025.141-.041.124-.045" transform="translate(58.825 8.437)" fill="#1a4564"/>
        <path id="Path_980" data-name="Path 980" d="M62.705,9.062l.072-.041-.043.01-.029.031" transform="translate(58.79 8.458)" fill="#1a4564"/>
        <path id="Path_981" data-name="Path 981" d="M48.313,19.059a1.215,1.215,0,0,0-1.614.422,1.154,1.154,0,0,0-.145.531q-1.744-.921-3.472-1.866a1.111,1.111,0,0,0-.31-1.707,64.654,64.654,0,0,0-10.728-4.786.971.971,0,0,0-.362-.045,2.459,2.459,0,0,0-.626-.546,1.626,1.626,0,0,0-1.244-.161,1.573,1.573,0,0,0-.9.7,2.309,2.309,0,0,0-.229.539,1.025,1.025,0,0,0-.777-.072,2.57,2.57,0,0,0-1.635,1.552l-.023-.079a1.208,1.208,0,0,0-.227-.422,1.192,1.192,0,0,0-.835-1.4,1.21,1.21,0,0,0-1.453.825,30.919,30.919,0,0,1-3.276,6.89,1.182,1.182,0,0,0,.093,1.312,1.16,1.16,0,0,0,1.242.422,8.9,8.9,0,0,1,.878-.31c-.008.07-.021.138-.031.207a.9.9,0,0,0,.163.61,1.188,1.188,0,0,0,.37,1.4c-.085.095-.165.2-.236.295a1.154,1.154,0,0,0-.066.1l-.029.058c-.05.11-.1.221-.141.333a2.134,2.134,0,0,0-.1.548c0,.019,0,.039,0,.058a1.006,1.006,0,0,0,.033.442c.041.093.079.188.12.281a1.182,1.182,0,0,0,.422.424,5.826,5.826,0,0,0,1.153.589,4.531,4.531,0,0,0,.982.271.885.885,0,0,0,.471.019.771.771,0,0,0,.2-.035A43.545,43.545,0,0,0,30.6,28.749a2.4,2.4,0,0,0,.36.122c1.178.7,2.335,1.428,3.455,2.215a.952.952,0,0,0,.469.161.881.881,0,0,0,.32.295l.283.118a1.152,1.152,0,0,0,.628,0l.281-.118a1.182,1.182,0,0,0,.424-.422c.031-.058.064-.116.095-.174.13.052.26.1.389.153a1.549,1.549,0,0,0,.122.107,10.435,10.435,0,0,0,2.751,1.327.987.987,0,0,0-.134.3,1.2,1.2,0,0,0,.118.911l.184.238a1.194,1.194,0,0,0,.521.3l2.312.866a1.136,1.136,0,0,0,2.1.287q2.154-4.516,4.212-9.076Q50,25.234,50.5,24.109a18.524,18.524,0,0,0,.965-2.207c.513-1.753-1.982-2.321-3.152-2.842m-9.94,9.17a1.018,1.018,0,0,0-.717.031q-5.04-2.685-10.079-5.375c1.147-2.5,2.346-4.981,3.637-7.417q7.513,4.205,15.278,7.93a68.411,68.411,0,0,1-3.323,7.339,19.1,19.1,0,0,0-4.8-2.509" transform="translate(19.036 10.167)" fill="#e7d3bd"/>
        <path id="Path_982" data-name="Path 982" d="M68.741,19.5l-2.343-.81a1.176,1.176,0,0,0-1.114.273L62.63,17.5a1.313,1.313,0,0,0-.577-1.081c-3.941-2.91-8.864-3.949-12.982-6.547a1.128,1.128,0,0,0-.738-.271,1.187,1.187,0,0,0-.835.347,3.355,3.355,0,0,0-.3.384,1.39,1.39,0,0,0-.1.18,2.471,2.471,0,0,0-.234.668l-.006.045a1.188,1.188,0,0,0-1.453.488c-.112.178-.217.364-.329.543a1.175,1.175,0,0,0-.856-1.207,1.306,1.306,0,0,0-.717.043,1.164,1.164,0,0,0-.854.546,40.368,40.368,0,0,0-3.065,6.22.931.931,0,0,0-.014.581c-.139.219-.275.436-.415.653a1.188,1.188,0,0,0,.424,1.616,1.224,1.224,0,0,0,.829.122,1.137,1.137,0,0,0,.546.9,1.086,1.086,0,0,0,.306.116,1.311,1.311,0,0,0,.486.637l.035.035c-.056.054-.1.114-.165.165a3.419,3.419,0,0,1-.4.26,1.192,1.192,0,0,0-.422.422,1.2,1.2,0,0,0,.705,1.736l1.492.36c.05.012.1.015.157.023a1.167,1.167,0,0,0,.32.157,1.13,1.13,0,0,0,.659-.015,23.805,23.805,0,0,0,4.125,2.127q2.735,1.282,5.47,2.561a1.225,1.225,0,0,0,1.529-.306c1.118.6,2.255,1.159,3.4,1.693a1.235,1.235,0,0,0-.157.4,1.248,1.248,0,0,0,.12.909,1.274,1.274,0,0,0,.705.543q1.3.421,2.6.839a1.193,1.193,0,0,0,1.407-.7.94.94,0,0,0,.4-.411q2.863-6.028,5.724-12.054a1.2,1.2,0,0,0-.705-1.736M61.3,30.078A143.917,143.917,0,0,0,46.05,22.095q1.59-3.816,3.34-7.56c2.668,1.2,5.3,2.478,7.886,3.85,1.347.715,2.678,1.457,4,2.215a12.23,12.23,0,0,0,3,1.337,1.35,1.35,0,0,0,.552.5q-1.767,3.822-3.53,7.646" transform="translate(36.554 9.005)" fill="#e7d3bd"/>
        <path id="Path_983" data-name="Path 983" d="M40.934,63.86a1.131,1.131,0,0,1-.678-.233,1.3,1.3,0,0,1-.519-.868,1.369,1.369,0,0,1,.169-.965,1.117,1.117,0,0,1,1.66-.3,1.339,1.339,0,0,1,.5.86,1.314,1.314,0,0,1-.2,1.006,1.111,1.111,0,0,1-.73.484l0,0a1.327,1.327,0,0,1-.194.016M40.86,62.2l-.023,0c-.021,0-.06.012-.1.087a.535.535,0,0,0,.093.577c.054.045.085.048.12.039s.072-.019.114-.095a.409.409,0,0,0,.035-.291.567.567,0,0,0-.052-.159.387.387,0,0,0-.081-.107.16.16,0,0,0-.107-.054" transform="translate(37.233 57.421)" fill="#886429"/>
      </g>
    </g>
    <path id="Path_984" data-name="Path 984" d="M43.057,64.2l-.482-.469-.2.033-.6-.585.116.668-.934.17-.44-2.523.161-.029-.095-.539.482.469.194-.035.612.591-.12-.68.94-.155.434,2.521-.159.027Z" transform="translate(37.985 57.121)" fill="#886429"/>
    <path id="Path_985" data-name="Path 985" d="M39.589,61.485,39.16,64.4l.957-.174.428-2.918Z" transform="translate(36.715 57.482)" fill="#886429"/>
    <g id="Group_1044" data-name="Group 1044">
      <g id="Group_1043" data-name="Group 1043" clip-path="url(#clip-path)">
        <path id="Path_986" data-name="Path 986" d="M37.986,64.362a1.146,1.146,0,0,1-.678-.231,1.307,1.307,0,0,1-.521-.87,1.365,1.365,0,0,1,.169-.965,1.118,1.118,0,0,1,.765-.531,1.1,1.1,0,0,1,.9.229,1.339,1.339,0,0,1,.5.86,1.3,1.3,0,0,1-.2,1.006,1.111,1.111,0,0,1-.73.484l0,0a1.282,1.282,0,0,1-.192.016m-.074-1.66-.025,0c-.021,0-.06.012-.1.087a.447.447,0,0,0-.039.308.435.435,0,0,0,.13.265.142.142,0,0,0,.122.043h0c.031-.006.07-.017.11-.091a.4.4,0,0,0,.037-.295.639.639,0,0,0-.05-.159.48.48,0,0,0-.085-.11.155.155,0,0,0-.1-.05" transform="translate(34.467 57.891)" fill="#886429"/>
      </g>
    </g>
    <path id="Path_987" data-name="Path 987" d="M38.011,64.4l-.444-2.523,1.864-.326.161.928-.029.006.124.792-.866.153.141.8Z" transform="translate(35.221 57.706)" fill="#886429"/>
    <path id="Path_988" data-name="Path 988" d="M38.681,64.28l-.444-2.523,1.858-.326.172.926-.041.008.136.792-.872.153.141.8Z" transform="translate(35.849 57.596)" fill="#886429"/>
    <path id="Path_989" data-name="Path 989" d="M15.364,50.113l-.643-.451,3.658-5.208,5.206,3.656-.45.643-4.565-3.2Z" transform="translate(13.802 41.678)" fill="#886429"/>
    <g id="Group_1046" data-name="Group 1046">
      <g id="Group_1045" data-name="Group 1045" clip-path="url(#clip-path)">
        <path id="Path_990" data-name="Path 990" d="M55.068,80.008l-.442-.893.351-.174c.362-.18.721-.38,1.07-.593l.335-.2.513.849-.331.205c-.37.229-.754.442-1.143.636ZM57.335,78.7l-.6-.792.316-.238c.326-.242.645-.5.947-.773l.295-.262.663.744-.293.262c-.326.291-.667.568-1.013.827Zm1.988-1.684-.721-.686.269-.283c.275-.3.544-.606.8-.926l.242-.308.785.618-.246.308c-.271.341-.556.674-.854.992ZM61,75l-.835-.539.217-.331c.223-.341.432-.694.624-1.052l.188-.347.874.477-.186.345c-.205.384-.426.761-.667,1.122Zm1.294-2.269-.92-.386.157-.364c.161-.374.3-.758.43-1.141l.124-.374.942.31-.118.372c-.134.413-.289.825-.461,1.225Zm.876-2.461-.973-.219.087-.384c.091-.4.167-.8.223-1.2l.052-.391.988.14-.054.388c-.058.43-.138.864-.234,1.287Zm.426-2.575-1-.048.019-.4a12.1,12.1,0,0,0,0-1.215l-.017-.393,1-.045.015.4c.016.434.016.872-.006,1.306Zm-1.025-2.486-.048-.393c-.025-.213-.062-.426-.095-.637-.035-.184-.07-.372-.112-.558l-.087-.388.978-.211.083.384c.043.2.083.4.118.6.041.223.076.451.1.68l.054.393Zm-.451-2.4L62,62.434c-.12-.386-.26-.773-.411-1.145l-.149-.362.92-.384.151.366c.165.4.314.814.442,1.228l.12.378Zm-.858-2.281-.182-.347c-.186-.358-.391-.715-.61-1.058l-.213-.333.843-.531.209.329c.236.366.455.746.655,1.133l.18.347Zm-1.252-2.089-.24-.312c-.25-.32-.515-.636-.791-.934l-.267-.291.738-.67.264.287c.295.318.575.655.843,1l.242.312ZM58.4,56.6l-.287-.262c-.3-.271-.616-.533-.94-.779l-.314-.24.606-.791.312.236c.347.264.684.544,1.006.837l.293.265Zm-1.9-1.525-.331-.211c-.343-.215-.7-.419-1.058-.6l-.349-.18.455-.885.351.178c.386.2.765.419,1.133.649l.335.209ZM54.367,53.9,54,53.75c-.374-.151-.763-.291-1.151-.409l-.376-.114.295-.955.376.116c.415.126.829.275,1.23.438l.366.147Zm-2.308-.781-.384-.081c-.4-.085-.8-.153-1.2-.2l-.389-.047.116-.994.393.048c.43.054.862.126,1.288.219l.382.081Z" transform="translate(46.958 48.559)" fill="#886429"/>
        <path id="Path_991" data-name="Path 991" d="M55.19,80.691l-.389-.046c-.43-.052-.864-.126-1.288-.215l-.384-.081.205-.975.384.081c.4.081.8.151,1.205.2l.391.047Zm-2.565-.475-.378-.116c-.415-.126-.829-.275-1.232-.44l-.362-.149.376-.92.364.147c.376.153.761.291,1.145.409l.374.114ZM50.18,79.3l-.351-.18c-.386-.2-.771-.417-1.137-.647l-.331-.209.529-.845.331.209c.345.217.7.419,1.064.606l.347.18Zm-2.246-1.331-.316-.24c-.347-.265-.686-.546-1-.837l-.291-.264L47,75.882l.291.267c.3.273.612.535.934.779l.312.236Zm-1.982-1.709-.265-.289c-.295-.318-.577-.655-.845-1l-.244-.316.794-.6.238.308c.25.32.513.632.789.932l.267.289ZM44.3,74.227,44.09,73.9c-.233-.366-.451-.744-.655-1.128l-.184-.351.889-.463.182.351c.186.36.391.715.608,1.056l.211.331Zm-1.265-2.282-.149-.366c-.167-.4-.316-.816-.444-1.232l-.112-.372.947-.3.118.378a12,12,0,0,0,.413,1.143l.149.362Zm-.841-2.476-.083-.382c-.047-.2-.085-.4-.122-.61-.037-.227-.074-.455-.1-.682l-.047-.386.98-.13.052.388c.031.215.06.43.1.643.031.188.07.376.108.566l.083.382Zm-.4-2.583-.017-.388c-.019-.438-.017-.878.006-1.314l.021-.393.992.054-.019.391c-.019.4-.019.816-.006,1.221l.014.393Zm1.042-2.474-.992-.138.056-.391c.062-.43.14-.86.24-1.285l.089-.384.971.229-.091.382c-.091.393-.165.8-.219,1.2Zm.482-2.387-.955-.312.126-.374c.134-.411.289-.822.459-1.221l.155-.364.915.4-.153.358c-.157.374-.3.754-.426,1.141Zm.891-2.271-.887-.465.19-.351c.207-.382.43-.758.665-1.122l.215-.333.839.548-.215.329c-.225.339-.432.692-.624,1.046Zm1.277-2.077-.789-.612.242-.31c.269-.343.558-.674.856-.994l.269-.283.727.678-.269.289c-.279.3-.544.606-.8.926ZM47.1,55.853l-.665-.742.295-.264c.324-.289.665-.566,1.013-.825l.314-.233.6.8-.314.236c-.326.242-.643.5-.947.771Zm1.912-1.505-.519-.854.333-.205c.37-.227.754-.438,1.139-.634l.351-.176.455.9-.358.174c-.362.178-.719.378-1.062.591Z" transform="translate(39.157 49.201)" fill="#886429"/>
        <path id="Path_992" data-name="Path 992" d="M73.529,58.343A4.863,4.863,0,0,1,69.789,56.6L64.04,49.733a4.872,4.872,0,1,1,7.471-6.254l5.749,6.869a4.87,4.87,0,0,1-3.732,8m-8.886-9.116L70.392,56.1a4.085,4.085,0,1,0,6.266-5.243l-5.749-6.871a4.086,4.086,0,0,0-6.266,5.245" transform="translate(58.975 39.127)" fill="#886429"/>
        <path id="Path_993" data-name="Path 993" d="M20.243,83.828A64.013,64.013,0,0,1,3.58,50.682L2.386,44.608a7.226,7.226,0,0,1-.112-1.254h.787a6.275,6.275,0,0,0,.1,1.11l1.194,6.072a63.223,63.223,0,0,0,16.46,32.751Z" transform="translate(2.132 40.647)" fill="#886429"/>
        <path id="Path_994" data-name="Path 994" d="M75.112,106.4l-.136-.775a6.4,6.4,0,0,0-2.2-12.606,50.7,50.7,0,0,1-58.685-41.2l-1.2-6.072A6.4,6.4,0,0,0,5.48,40.533l-.136-.777A7.189,7.189,0,0,1,13.662,45.6l1.2,6.072A49.917,49.917,0,0,0,72.635,92.239,7.186,7.186,0,0,1,75.112,106.4" transform="translate(5.01 37.173)" fill="#886429"/>
        <path id="Path_995" data-name="Path 995" d="M31.937,69.2A37.465,37.465,0,0,1,16.458,44.838l.775-.138A36.689,36.689,0,0,0,32.387,68.559Z" transform="translate(15.43 41.909)" fill="#886429"/>
      </g>
    </g>
    <path id="Path_996" data-name="Path 996" d="M37.859,71.415l-1.271-7.246,10.777-1.885,1.267,7.245ZM37.5,64.808l1,5.7,9.221-1.616-.994-5.694Z" transform="translate(34.303 58.394)" fill="#010101"/>
    <g id="Group_1048" data-name="Group 1048">
      <g id="Group_1047" data-name="Group 1047" clip-path="url(#clip-path)">
        <path id="Path_997" data-name="Path 997" d="M52.4,37.607a1.888,1.888,0,0,1-1.546-2.972,1.887,1.887,0,1,1,1.87,2.943,1.843,1.843,0,0,1-.324.029m0-2.988a1.108,1.108,0,0,0-.194.017,1.1,1.1,0,1,0,1.273.9v0a1.093,1.093,0,0,0-.453-.711,1.073,1.073,0,0,0-.626-.2" transform="translate(47.36 31.721)" fill="#010101"/>
        <path id="Path_998" data-name="Path 998" d="M52.4,37.607a1.888,1.888,0,0,1-1.546-2.972,1.887,1.887,0,1,1,1.87,2.943,1.843,1.843,0,0,1-.324.029m0-2.988a1.108,1.108,0,0,0-.194.017,1.1,1.1,0,1,0,1.273.9v0a1.093,1.093,0,0,0-.453-.711,1.073,1.073,0,0,0-.626-.2" transform="translate(47.36 31.721)" fill="#010101"/>
        <path id="Path_999" data-name="Path 999" d="M36.711,44.725a2.239,2.239,0,1,1,.384-.035,2.157,2.157,0,0,1-.384.035m0-3.674a1.355,1.355,0,0,0-.248.021,1.445,1.445,0,1,0,.248-.021" transform="translate(32.328 37.751)" fill="#010101"/>
        <path id="Path_1000" data-name="Path 1000" d="M53.891,46.773a1.889,1.889,0,0,1-1.852-1.562l-.345-1.97a1.892,1.892,0,0,1,1.533-2.184l7.353-1.288a1.89,1.89,0,0,1,2.2,2.027,1.868,1.868,0,0,1-.668,1.279,16.781,16.781,0,0,1-7.894,3.67,1.947,1.947,0,0,1-.331.029M60.9,40.528a1.044,1.044,0,0,0-.188.017l-7.353,1.287a1.1,1.1,0,0,0-.893,1.273l.345,1.97a1.1,1.1,0,0,0,1.271.893,15.984,15.984,0,0,0,7.525-3.5A1.075,1.075,0,0,0,62,41.726a1.094,1.094,0,0,0-.25-.8,1.113,1.113,0,0,0-.847-.4" transform="translate(48.439 37.261)" fill="#010101"/>
      </g>
    </g>
    <path id="Path_1001" data-name="Path 1001" d="M45.213,55.492l-.446-2.54,12.542-2.2.444,2.54Zm.467-1.9.172.99,10.99-1.924-.172-.99Z" transform="translate(41.972 47.588)" fill="#010101"/>
    <path id="Path_1002" data-name="Path 1002" d="M47.816,70.367l-.446-2.54,12.542-2.2.444,2.54Zm.467-1.9.172.99,10.99-1.924-.172-.99Z" transform="translate(44.412 61.534)" fill="#010101"/>
    <g id="Group_1050" data-name="Group 1050">
      <g id="Group_1049" data-name="Group 1049" clip-path="url(#clip-path)">
        <path id="Path_1003" data-name="Path 1003" d="M11.588,124.128h-.012a9.362,9.362,0,0,1-9.337-9.362l.072-56.04a7.17,7.17,0,0,1,5.944-7.07l32.132-5.623a28.021,28.021,0,0,1,48.491-8.485l13.588-2.379A1.287,1.287,0,0,1,103.9,36l1.294,3.571a.51.51,0,0,0,.558.326l12.309-2.156a.5.5,0,0,0,.419-.492l0-3.8a1.283,1.283,0,0,1,1.068-1.267l1.461-.258a7.171,7.171,0,0,1,7.992,4.631l3.344,9.229a1.153,1.153,0,0,1-1.234,1.536l-1.68-.223a.367.367,0,0,0-.312.109.356.356,0,0,0-.095.316.36.36,0,0,0,.42.295l2.467-.432a1.157,1.157,0,0,1,1.283.742l.508,1.4a1.151,1.151,0,0,1-.884,1.527l-2.72.479a.364.364,0,0,0-.3.422.387.387,0,0,0,.2.308.358.358,0,0,0,.32.008l2.618-1.2a1.162,1.162,0,0,1,.924-.016,1.139,1.139,0,0,1,.637.67l13.6,37.515a9.35,9.35,0,0,1-5.753,12.028,9.463,9.463,0,0,1-11.877-5.793l-5.024-13.857A64.29,64.29,0,0,1,20.958,99.9l-.017,14.886a9.366,9.366,0,0,1-9.353,9.341M66.961,27.744A27.258,27.258,0,0,0,41.06,46.5l-.072.225-32.6,5.7a6.381,6.381,0,0,0-5.293,6.3l-.072,56.038a8.57,8.57,0,0,0,8.55,8.574h.012a8.577,8.577,0,0,0,8.566-8.552l.021-16.843.676.713a63.508,63.508,0,0,0,104.276-18.25l.393-.9,5.691,15.7a8.676,8.676,0,0,0,10.881,5.321,8.566,8.566,0,0,0,5.272-11.017l-13.6-37.515a.36.36,0,0,0-.205-.213.353.353,0,0,0-.291,0l-2.618,1.2a1.133,1.133,0,0,1-1.011-.025,1.156,1.156,0,0,1-.6-.822,1.171,1.171,0,0,1,.93-1.383l2.72-.477a.367.367,0,0,0,.254-.176.362.362,0,0,0,.027-.306l-.508-1.4a.368.368,0,0,0-.407-.234l-2.468.43a1.125,1.125,0,0,1-.86-.19,1.155,1.155,0,0,1-.169-1.74,1.126,1.126,0,0,1,.984-.345l1.678.223a.327.327,0,0,0,.333-.134.359.359,0,0,0,.058-.355l-3.34-9.227a6.391,6.391,0,0,0-7.119-4.125l-1.463.258a.5.5,0,0,0-.417.492l0,3.8a1.286,1.286,0,0,1-1.07,1.267l-12.307,2.157a1.291,1.291,0,0,1-1.434-.833l-1.292-3.569a.493.493,0,0,0-.562-.324L88.551,38.4l-.147-.186A27.192,27.192,0,0,0,66.961,27.744" transform="translate(2.099 25.274)" fill="#010101"/>
      </g>
    </g>
    <path id="Path_1004" data-name="Path 1004" d="M66.629,1.974l7.082,1.288.072-.388L66.7,1.587Z" transform="translate(62.468 1.488)" fill="#3a589c"/>
    <path id="Path_1005" data-name="Path 1005" d="M66.316,2.854,74.7,4.383,74.77,4,66.388,2.469Z" transform="translate(62.176 2.315)" fill="#3a589c"/>
    <path id="Path_1006" data-name="Path 1006" d="M66.811,4.824l4.408.8.074-.386-4.41-.8Z" transform="translate(62.639 4.162)" fill="#3a589c"/>
    <path id="Path_1007" data-name="Path 1007" d="M66.452,3.82,74.93,5.366,75,4.981,66.523,3.433Z" transform="translate(62.302 3.218)" fill="#3a589c"/>
    <path id="Path_1008" data-name="Path 1008" d="M67.169,5.83l.341.062.072-.386-.339-.062Z" transform="translate(62.975 5.104)" fill="#3a589c"/>
    <path id="Path_1009" data-name="Path 1009" d="M67.568,1.206l4.051.738.072-.389L67.64.817Z" transform="translate(63.349 0.766)" fill="#3a589c"/>
    <path id="Path_1010" data-name="Path 1010" d="M66.565,4.2l-.3-.256L68.933.8l.3.256Z" transform="translate(62.129 0.754)" fill="#3a589c"/>
    <path id="Path_1011" data-name="Path 1011" d="M66.75,6.545l-.3-.256L71.109.8l.3.256Z" transform="translate(62.302 0.754)" fill="#3a589c"/>
    <path id="Path_1012" data-name="Path 1012" d="M67.109,8.038l-.3-.256,5.514-6.493.3.254Z" transform="translate(62.639 1.209)" fill="#3a589c"/>
    <path id="Path_1013" data-name="Path 1013" d="M69.326,6.8l-.3-.256,2.9-3.416.3.256Z" transform="translate(64.718 2.929)" fill="#3a589c"/>
    <rect id="Rectangle_1492" data-name="Rectangle 1492" width="0.344" height="0.392" transform="matrix(0.648, -0.762, 0.762, 0.648, 137.118, 8.264)" fill="#3a589c"/>
    <path id="Path_1014" data-name="Path 1014" d="M67.585,8.945l-.3-.256,5.578-6.57.3.256Z" transform="translate(63.085 1.986)" fill="#3a589c"/>
    <g id="Group_1052" data-name="Group 1052">
      <g id="Group_1051" data-name="Group 1051" clip-path="url(#clip-path)">
        <path id="Path_1015" data-name="Path 1015" d="M74.2,36.2l-.186-.347A45.586,45.586,0,0,0,87.379,25.063l.3.254A45.936,45.936,0,0,1,74.2,36.2" transform="translate(69.396 23.498)" fill="#3a589c"/>
      </g>
    </g>
    <path id="Path_1016" data-name="Path 1016" d="M77,33.16l-3.056-.891.891-3.056.378.11L74.429,32l2.678.781Z" transform="translate(69.324 27.389)" fill="#3a589c"/>
    <g id="Group_1054" data-name="Group 1054">
      <g id="Group_1053" data-name="Group 1053" clip-path="url(#clip-path)">
        <path id="Path_1017" data-name="Path 1017" d="M69.427,17.009a1.587,1.587,0,1,1,1.49-2.122v0a1.59,1.59,0,0,1-.961,2.029,1.566,1.566,0,0,1-.529.091m-.006-2.387a.821.821,0,0,0-.269.047.8.8,0,1,0,.269-.047" transform="translate(63.6 12.971)" fill="#010101"/>
        <path id="Path_1018" data-name="Path 1018" d="M63.7,12.467a1.886,1.886,0,1,1,.8-3.59,1.885,1.885,0,0,1-.172,3.48,1.894,1.894,0,0,1-.632.11m0-2.986a1.068,1.068,0,0,0-.372.066,1.1,1.1,0,1,0,1.4.663,1.086,1.086,0,0,0-.564-.622,1.1,1.1,0,0,0-.469-.107" transform="translate(57.948 8.151)" fill="#010101"/>
        <path id="Path_1019" data-name="Path 1019" d="M87,64.136a4.859,4.859,0,0,1-4.5-3,4.834,4.834,0,0,1,2.176-6.159,41.048,41.048,0,0,0,8.632-6.163L62.052,22.275a5.066,5.066,0,0,1-1.75-3.447,4.785,4.785,0,0,1,1.124-3.521A4.893,4.893,0,0,1,63.478,13.9l9.17-3.276L71.277,6.774A4.869,4.869,0,0,1,74.222.547,4.877,4.877,0,0,1,80.451,3.5l3.013,8.434a4.869,4.869,0,0,1-2.947,6.225l-5.811,2.079,28.844,24.491a4.869,4.869,0,0,1,.558,6.869A50.675,50.675,0,0,1,89.29,63.564a4.863,4.863,0,0,1-2.29.572m-1.949-8.463a4.086,4.086,0,0,0,3.869,7.2,49.864,49.864,0,0,0,14.588-11.786,4.085,4.085,0,0,0-.467-5.758L73.158,19.952l7.093-2.534a4.08,4.08,0,0,0,2.47-5.222L79.709,3.761a4.084,4.084,0,0,0-7.539-.374,4.051,4.051,0,0,0-.153,3.121L73.654,11.1l-9.911,3.542a4.1,4.1,0,0,0-1.721,1.182,4,4,0,0,0-.936,2.945,4.266,4.266,0,0,0,1.476,2.908L94.491,48.783l-.318.3a41.818,41.818,0,0,1-9.122,6.588" transform="translate(56.522 0.245)" fill="#010101"/>
      </g>
    </g>
    <path id="Path_1020" data-name="Path 1020" d="M58.646,28.058l-16.293-7.9,3.925-8.1,16.293,7.894ZM43.405,19.8l14.879,7.21,3.236-6.685L46.643,13.115Z" transform="translate(39.708 11.312)" fill="#010101"/>
    <g id="Group_1056" data-name="Group 1056">
      <g id="Group_1055" data-name="Group 1055" clip-path="url(#clip-path)">
        <path id="Path_1021" data-name="Path 1021" d="M63.069,35.591a.984.984,0,0,1-.426-.1l-4.387-2.127.391-.806-3.056-1.48-.391.806L41.145,25.076a.991.991,0,0,1-.459-1.323l.6-1.236a1.594,1.594,0,0,1-.467-1.753l-1,.2a1,1,0,0,1-.978-.364.981.981,0,0,1-.107-1.039l4.158-8.58a.979.979,0,0,1,.88-.56h.012a.982.982,0,0,1,.882.541l.461.9a1.58,1.58,0,0,1,1.664-.717l.6-1.236a.99.99,0,0,1,1.319-.461l14.059,6.812-.389.806,3.054,1.48.391-.806,4.383,2.124a.992.992,0,0,1,.459,1.323l-6.706,13.84a.992.992,0,0,1-.9.558M59.308,33l3.676,1.783a.209.209,0,0,0,.273-.095l6.706-13.84a.207.207,0,0,0-.1-.275L66.192,18.8,65.8,19.6l-4.47-2.164.389-.806-13.35-6.47a.2.2,0,0,0-.269.095l-.922,1.9-.353-.172a.791.791,0,0,0-.612-.037.8.8,0,0,0-.459.409l-.614,1.277-1.172-2.315a.2.2,0,0,0-.182-.11h0a.2.2,0,0,0-.18.116l-4.16,8.58a.2.2,0,0,0,.023.213.212.212,0,0,0,.2.076l2.54-.512-.616,1.273a.8.8,0,0,0,.374,1.07l.353.171-.922,1.9a.2.2,0,0,0-.01.155.21.21,0,0,0,.107.118l13.346,6.468.393-.806L59.7,32.2Z" transform="translate(36.223 8.771)" fill="#010101"/>
      </g>
    </g>
    <path id="Path_1022" data-name="Path 1022" d="M40.113,29.11l-16.293-7.9,3.925-8.1,16.293,7.894ZM24.872,20.85l14.879,7.21,3.236-6.685L28.11,14.167Z" transform="translate(22.333 12.298)" fill="#010101"/>
    <g id="Group_1058" data-name="Group 1058">
      <g id="Group_1057" data-name="Group 1057" clip-path="url(#clip-path)">
        <path id="Path_1023" data-name="Path 1023" d="M44.538,36.642a.991.991,0,0,1-.43-.1l-4.385-2.126.389-.806-3.052-1.48-.391.806L22.613,26.127a.99.99,0,0,1-.457-1.323l.6-1.236a1.6,1.6,0,0,1-.469-1.753l-.994.2a.99.99,0,0,1-1.087-1.4l4.158-8.58a.98.98,0,0,1,.88-.56h.012a.983.983,0,0,1,.882.541l.461.907a1.57,1.57,0,0,1,.827-.665,1.594,1.594,0,0,1,.839-.054l.6-1.238a.99.99,0,0,1,1.321-.457L44.24,17.317l-.389.806L46.9,19.6,47.3,18.8l4.385,2.124a.992.992,0,0,1,.457,1.323L45.431,36.082a.983.983,0,0,1-.566.506,1,1,0,0,1-.327.054m-3.763-2.589,3.676,1.781a.232.232,0,0,0,.273-.093L51.43,21.9a.206.206,0,0,0-.095-.273L47.66,19.847l-.391.806L42.8,18.487l.389-.806L29.84,11.214a.222.222,0,0,0-.269.095l-.924,1.9-.353-.172a.777.777,0,0,0-.61-.037.8.8,0,0,0-.459.409l-.616,1.275L25.436,12.37c-.054-.1-.194-.124-.184-.11a.2.2,0,0,0-.18.116l-4.16,8.58a.2.2,0,0,0,.023.213.2.2,0,0,0,.2.076l2.536-.512-.616,1.273a.8.8,0,0,0,.374,1.07l.353.172-.92,1.9a.205.205,0,0,0-.01.157.21.21,0,0,0,.1.114l13.35,6.47.393-.806,4.466,2.166Z" transform="translate(18.849 9.756)" fill="#010101"/>
        <path id="Path_1024" data-name="Path 1024" d="M10.566,41.274c3.627,3.075,8.1-1.817,10.649-4.1,2.2-1.965,5.071-4.018,5.559-7.128.453-2.895-1.575-4.908-4.4-4.96-2.6-.048-4.906,2.4-6.919,3.885-3.625,2.666-10.085,7.9-4.887,12.3" transform="translate(8.081 23.522)" fill="#ffcc30"/>
        <path id="Path_1025" data-name="Path 1025" d="M10.575,41.975c4.342,3.114,8.653-2.015,11.7-4.695,2.757-2.424,7.882-7.657,3.319-11.093-4.305-3.242-9.6,2.25-12.666,4.854-3.346,2.846-6.7,7.339-2.529,11.005a.444.444,0,0,0,.628-.626C7.39,37.6,10.61,34,13.787,31.324c2.408-2.025,6.88-6.692,10.23-5.187,6.347,2.852-.043,8.707-2.887,11.265-2.643,2.375-6.411,6.76-10.273,4.088-.3-.207-.572.277-.283.484" transform="translate(7.931 23.619)" fill="#282828"/>
      </g>
    </g>
  </g>
  <g id="Group_1061" data-name="Group 1061" transform="translate(138.574 145.727)">
    <g id="Group_1062" data-name="Group 1062">
      <path id="Path_1032" data-name="Path 1032" d="M29.983,8.61a9.858,9.858,0,0,0-3.9-3.8A22.5,22.5,0,0,0,21.01,2.859a.558.558,0,0,0-.388-.362,17.345,17.345,0,0,0-8.928-.049A27.682,27.682,0,0,0,7.353,3.9C6.131,4.414,4.666,4.939,4,6.16a.649.649,0,0,0-.065.181c-.084.08-.171.155-.251.238A7.929,7.929,0,0,0,.674,13.672,9.481,9.481,0,0,0,3.728,19.5c.007.01.014.021.022.031a11.589,11.589,0,0,0,7.707,4.107.529.529,0,0,0,.275.125,27.49,27.49,0,0,0,6.546.322,8.8,8.8,0,0,0,4.394-1.118,14.8,14.8,0,0,0,2.183-1.162,9.739,9.739,0,0,0,6.174-7.791A9.246,9.246,0,0,0,29.983,8.61" transform="translate(-0.325 -1.888)" fill="#dc463c"/>
      <path id="Path_1033" data-name="Path 1033" d="M18.85,12.125a1.679,1.679,0,0,0-.794-1.047,1.916,1.916,0,0,0-1.585-.711,2.569,2.569,0,0,0-2.1.564,1.053,1.053,0,0,0-.117,1.3,1.217,1.217,0,0,0,.008.17,1.505,1.505,0,0,0,1.2,1.178,4.216,4.216,0,0,0,2.272-.143c.591-.189,1.233-.6,1.106-1.312m-3.873-.664a1.322,1.322,0,0,0-.045.566,1.6,1.6,0,0,0,.045.208.666.666,0,0,1-.244-.377,1.156,1.156,0,0,1,.077-.164,1.614,1.614,0,0,1,.167-.233m-.043,1.4a.878.878,0,0,1-.168-.223,2.147,2.147,0,0,0,.394.143c.038.016.078.026.118.04a1.827,1.827,0,0,0,.424.394,1.505,1.505,0,0,1-.768-.354m3.073.04c-.062.032-.132.055-.2.082a1.035,1.035,0,0,0,.236-.48,1.215,1.215,0,0,0,.414-.273.508.508,0,0,1,.007.117.747.747,0,0,1-.458.554" transform="translate(-0.325 -1.888)" fill="#a51e22"/>
      <path id="Path_1034" data-name="Path 1034" d="M29.054,7.542C23.253,0,7.724.159,2.18,7.958A9.5,9.5,0,0,0,.457,14.994c.562,2.957,2.949,5.067,5.472,6.458a21.9,21.9,0,0,0,17.307,1.7c2.887-.962,5.726-2.738,7.069-5.571A10,10,0,0,0,29.153,7.394c-.217-.272-.676.084-.482.372A9.693,9.693,0,0,1,29.442,17.8a11.384,11.384,0,0,1-6.364,4.779,20.823,20.823,0,0,1-15.595-.808c-2.713-1.235-5.571-3.188-6.434-6.207a8.914,8.914,0,0,1,1.5-7.393C5.308,4.3,10.461,2.8,15,2.625c4.968-.187,10.5,1.16,13.839,5.083.1.117.31-.043.215-.166" transform="translate(-0.325 -1.888)" fill="#282828"/>
      <path id="Path_1035" data-name="Path 1035" d="M14.994,10.673c-.729.174-1.269.664-.9,1.435a3.3,3.3,0,0,0,2.317,1.561,2.038,2.038,0,0,0,2.334-1.194,1.519,1.519,0,0,0-1.079-2.121c-.96-.32-2.781-.3-3.313.758a.128.128,0,0,0,.2.155,3.032,3.032,0,0,1,2.957-.618,1.366,1.366,0,0,1,1.094,1.064,1.733,1.733,0,0,1-.878,1.524,2.638,2.638,0,0,1-2.654-.434c-.816-.586-1.29-1.578-.033-1.951a.093.093,0,0,0-.049-.179" transform="translate(-0.325 -1.888)" fill="#282828"/>
      <path id="Path_1036" data-name="Path 1036" d="M6.33,18.809a8.116,8.116,0,0,0,3.736.946.088.088,0,0,0,0-.176,10.1,10.1,0,0,1-3.7-.913c-.09-.034-.125.108-.039.143" transform="translate(-0.325 -1.888)" fill="#282828"/>
      <path id="Path_1037" data-name="Path 1037" d="M12.094,20.842c3.309.957,7.349.45,10.617-.521a8.4,8.4,0,0,0,6.042-5.644c.04-.131-.166-.187-.206-.056-1.022,3.309-3.707,5.036-6.958,5.768-3.034.683-6.419,1.164-9.462.332a.063.063,0,0,0-.033.121" transform="translate(-0.325 -1.888)" fill="#282828"/>
    </g>
  </g>
  <g id="Group_1067" data-name="Group 1067" transform="translate(154.773 148.888)">
    <g id="Group_1062-2" data-name="Group 1062">
      <path id="Path_1032-2" data-name="Path 1032" d="M29.983,8.61a9.858,9.858,0,0,0-3.9-3.8A22.5,22.5,0,0,0,21.01,2.859a.558.558,0,0,0-.388-.362,17.345,17.345,0,0,0-8.928-.049A27.682,27.682,0,0,0,7.353,3.9C6.131,4.414,4.666,4.939,4,6.16a.649.649,0,0,0-.065.181c-.084.08-.171.155-.251.238A7.929,7.929,0,0,0,.674,13.672,9.481,9.481,0,0,0,3.728,19.5c.007.01.014.021.022.031a11.589,11.589,0,0,0,7.707,4.107.529.529,0,0,0,.275.125,27.49,27.49,0,0,0,6.546.322,8.8,8.8,0,0,0,4.394-1.118,14.8,14.8,0,0,0,2.183-1.162,9.739,9.739,0,0,0,6.174-7.791A9.246,9.246,0,0,0,29.983,8.61" transform="translate(-0.325 -1.888)" fill="#dc463c"/>
      <path id="Path_1033-2" data-name="Path 1033" d="M18.85,12.125a1.679,1.679,0,0,0-.794-1.047,1.916,1.916,0,0,0-1.585-.711,2.569,2.569,0,0,0-2.1.564,1.053,1.053,0,0,0-.117,1.3,1.217,1.217,0,0,0,.008.17,1.505,1.505,0,0,0,1.2,1.178,4.216,4.216,0,0,0,2.272-.143c.591-.189,1.233-.6,1.106-1.312m-3.873-.664a1.322,1.322,0,0,0-.045.566,1.6,1.6,0,0,0,.045.208.666.666,0,0,1-.244-.377,1.156,1.156,0,0,1,.077-.164,1.614,1.614,0,0,1,.167-.233m-.043,1.4a.878.878,0,0,1-.168-.223,2.147,2.147,0,0,0,.394.143c.038.016.078.026.118.04a1.827,1.827,0,0,0,.424.394,1.505,1.505,0,0,1-.768-.354m3.073.04c-.062.032-.132.055-.2.082a1.035,1.035,0,0,0,.236-.48,1.215,1.215,0,0,0,.414-.273.508.508,0,0,1,.007.117.747.747,0,0,1-.458.554" transform="translate(-0.325 -1.888)" fill="#a51e22"/>
      <path id="Path_1034-2" data-name="Path 1034" d="M29.054,7.542C23.253,0,7.724.159,2.18,7.958A9.5,9.5,0,0,0,.457,14.994c.562,2.957,2.949,5.067,5.472,6.458a21.9,21.9,0,0,0,17.307,1.7c2.887-.962,5.726-2.738,7.069-5.571A10,10,0,0,0,29.153,7.394c-.217-.272-.676.084-.482.372A9.693,9.693,0,0,1,29.442,17.8a11.384,11.384,0,0,1-6.364,4.779,20.823,20.823,0,0,1-15.595-.808c-2.713-1.235-5.571-3.188-6.434-6.207a8.914,8.914,0,0,1,1.5-7.393C5.308,4.3,10.461,2.8,15,2.625c4.968-.187,10.5,1.16,13.839,5.083.1.117.31-.043.215-.166" transform="translate(-0.325 -1.888)" fill="#282828"/>
      <path id="Path_1035-2" data-name="Path 1035" d="M14.994,10.673c-.729.174-1.269.664-.9,1.435a3.3,3.3,0,0,0,2.317,1.561,2.038,2.038,0,0,0,2.334-1.194,1.519,1.519,0,0,0-1.079-2.121c-.96-.32-2.781-.3-3.313.758a.128.128,0,0,0,.2.155,3.032,3.032,0,0,1,2.957-.618,1.366,1.366,0,0,1,1.094,1.064,1.733,1.733,0,0,1-.878,1.524,2.638,2.638,0,0,1-2.654-.434c-.816-.586-1.29-1.578-.033-1.951a.093.093,0,0,0-.049-.179" transform="translate(-0.325 -1.888)" fill="#282828"/>
      <path id="Path_1036-2" data-name="Path 1036" d="M6.33,18.809a8.116,8.116,0,0,0,3.736.946.088.088,0,0,0,0-.176,10.1,10.1,0,0,1-3.7-.913c-.09-.034-.125.108-.039.143" transform="translate(-0.325 -1.888)" fill="#282828"/>
      <path id="Path_1037-2" data-name="Path 1037" d="M12.094,20.842c3.309.957,7.349.45,10.617-.521a8.4,8.4,0,0,0,6.042-5.644c.04-.131-.166-.187-.206-.056-1.022,3.309-3.707,5.036-6.958,5.768-3.034.683-6.419,1.164-9.462.332a.063.063,0,0,0-.033.121" transform="translate(-0.325 -1.888)" fill="#282828"/>
    </g>
  </g>
  <g id="Group_1068" data-name="Group 1068" transform="translate(131.773 154.868)">
    <g id="Group_1062-3" data-name="Group 1062">
      <path id="Path_1032-3" data-name="Path 1032" d="M29.983,8.61a9.858,9.858,0,0,0-3.9-3.8A22.5,22.5,0,0,0,21.01,2.859a.558.558,0,0,0-.388-.362,17.345,17.345,0,0,0-8.928-.049A27.682,27.682,0,0,0,7.353,3.9C6.131,4.414,4.666,4.939,4,6.16a.649.649,0,0,0-.065.181c-.084.08-.171.155-.251.238A7.929,7.929,0,0,0,.674,13.672,9.481,9.481,0,0,0,3.728,19.5c.007.01.014.021.022.031a11.589,11.589,0,0,0,7.707,4.107.529.529,0,0,0,.275.125,27.49,27.49,0,0,0,6.546.322,8.8,8.8,0,0,0,4.394-1.118,14.8,14.8,0,0,0,2.183-1.162,9.739,9.739,0,0,0,6.174-7.791A9.246,9.246,0,0,0,29.983,8.61" transform="translate(-0.325 -1.888)" fill="#dc463c"/>
      <path id="Path_1033-3" data-name="Path 1033" d="M18.85,12.125a1.679,1.679,0,0,0-.794-1.047,1.916,1.916,0,0,0-1.585-.711,2.569,2.569,0,0,0-2.1.564,1.053,1.053,0,0,0-.117,1.3,1.217,1.217,0,0,0,.008.17,1.505,1.505,0,0,0,1.2,1.178,4.216,4.216,0,0,0,2.272-.143c.591-.189,1.233-.6,1.106-1.312m-3.873-.664a1.322,1.322,0,0,0-.045.566,1.6,1.6,0,0,0,.045.208.666.666,0,0,1-.244-.377,1.156,1.156,0,0,1,.077-.164,1.614,1.614,0,0,1,.167-.233m-.043,1.4a.878.878,0,0,1-.168-.223,2.147,2.147,0,0,0,.394.143c.038.016.078.026.118.04a1.827,1.827,0,0,0,.424.394,1.505,1.505,0,0,1-.768-.354m3.073.04c-.062.032-.132.055-.2.082a1.035,1.035,0,0,0,.236-.48,1.215,1.215,0,0,0,.414-.273.508.508,0,0,1,.007.117.747.747,0,0,1-.458.554" transform="translate(-0.325 -1.888)" fill="#a51e22"/>
      <path id="Path_1034-3" data-name="Path 1034" d="M29.054,7.542C23.253,0,7.724.159,2.18,7.958A9.5,9.5,0,0,0,.457,14.994c.562,2.957,2.949,5.067,5.472,6.458a21.9,21.9,0,0,0,17.307,1.7c2.887-.962,5.726-2.738,7.069-5.571A10,10,0,0,0,29.153,7.394c-.217-.272-.676.084-.482.372A9.693,9.693,0,0,1,29.442,17.8a11.384,11.384,0,0,1-6.364,4.779,20.823,20.823,0,0,1-15.595-.808c-2.713-1.235-5.571-3.188-6.434-6.207a8.914,8.914,0,0,1,1.5-7.393C5.308,4.3,10.461,2.8,15,2.625c4.968-.187,10.5,1.16,13.839,5.083.1.117.31-.043.215-.166" transform="translate(-0.325 -1.888)" fill="#282828"/>
      <path id="Path_1035-3" data-name="Path 1035" d="M14.994,10.673c-.729.174-1.269.664-.9,1.435a3.3,3.3,0,0,0,2.317,1.561,2.038,2.038,0,0,0,2.334-1.194,1.519,1.519,0,0,0-1.079-2.121c-.96-.32-2.781-.3-3.313.758a.128.128,0,0,0,.2.155,3.032,3.032,0,0,1,2.957-.618,1.366,1.366,0,0,1,1.094,1.064,1.733,1.733,0,0,1-.878,1.524,2.638,2.638,0,0,1-2.654-.434c-.816-.586-1.29-1.578-.033-1.951a.093.093,0,0,0-.049-.179" transform="translate(-0.325 -1.888)" fill="#282828"/>
      <path id="Path_1036-3" data-name="Path 1036" d="M6.33,18.809a8.116,8.116,0,0,0,3.736.946.088.088,0,0,0,0-.176,10.1,10.1,0,0,1-3.7-.913c-.09-.034-.125.108-.039.143" transform="translate(-0.325 -1.888)" fill="#282828"/>
      <path id="Path_1037-3" data-name="Path 1037" d="M12.094,20.842c3.309.957,7.349.45,10.617-.521a8.4,8.4,0,0,0,6.042-5.644c.04-.131-.166-.187-.206-.056-1.022,3.309-3.707,5.036-6.958,5.768-3.034.683-6.419,1.164-9.462.332a.063.063,0,0,0-.033.121" transform="translate(-0.325 -1.888)" fill="#282828"/>
    </g>
  </g>
  <g id="Group_1064" data-name="Group 1064" transform="translate(0 38)">
    <g id="Group_1063" data-name="Group 1063" clip-path="url(#clip-path-10)">
      <path id="Path_1038" data-name="Path 1038" d="M37.3,10.626a.847.847,0,0,0-.327-.614,7.193,7.193,0,0,0,.137-2.389,1.334,1.334,0,0,0-.356-.789,5.69,5.69,0,0,0-.3-1,.729.729,0,0,0-.081-.543L35.65,4.248a.558.558,0,0,0-.193-.21.541.541,0,0,0-.179-.106,9.339,9.339,0,0,0-1.81-1.562A20.24,20.24,0,0,0,30.781.878,3.059,3.059,0,0,0,28.639.554c-.231-.076-.464-.149-.7-.216A6.066,6.066,0,0,0,24.016.322a1.032,1.032,0,0,0-.177.094c-.249,0-.5,0-.749.014A27.837,27.837,0,0,0,17.983.29,28.98,28.98,0,0,0,14.45.747a13.912,13.912,0,0,0-1.871.469A20.546,20.546,0,0,0,8.086,2.6,19.069,19.069,0,0,0,4.144,4.929l-.118.087c-.07.048-.138.1-.206.149a5.988,5.988,0,0,0-.894.733,6.854,6.854,0,0,0-2.3,5.273.758.758,0,0,0,.151.415A9.263,9.263,0,0,0,.8,15.61a1.115,1.115,0,0,0,1.046.934.748.748,0,0,0,.1.859,10.974,10.974,0,0,0,5.122,3.312,25.857,25.857,0,0,0,6.427.845.674.674,0,0,0,.468-.142,33.77,33.77,0,0,0,7.227-.651,6.4,6.4,0,0,0,3.148-.3A22.967,22.967,0,0,0,28.469,19a29.986,29.986,0,0,0,3.771-2.077,21.333,21.333,0,0,0,3.3-2.458A4.882,4.882,0,0,0,37.3,10.626M18.486,17.033l-2.862.006a33.866,33.866,0,0,1-5.83-.183.945.945,0,0,0-.348,0,24.741,24.741,0,0,1-6.017-2.742,1.266,1.266,0,0,0-.261-.289c0-.014,0-.027,0-.041a2.522,2.522,0,0,1-.608-.434A1.546,1.546,0,0,1,2.1,12.37a1.418,1.418,0,0,1,.023-.362.279.279,0,0,1,.043-.379l.1-.08a3.212,3.212,0,0,1,.166-.332.591.591,0,0,1,.1-.114.585.585,0,0,1,.079-.239,4.778,4.778,0,0,1,.873-1.035A12.37,12.37,0,0,1,5.764,8.137l.007,0A17.285,17.285,0,0,1,14.661,4.7c2.961-.309,5.958-.333,8.93-.45a33.289,33.289,0,0,1,5.39-.086l1.732.411a5.132,5.132,0,0,1,1.469.838,1.354,1.354,0,0,0,.593.287,1.322,1.322,0,0,0,.541.319c.109.033.281.156.069.015.055.037.12.068.179.1l.042.021.019.02c.061.06.118.126.181.183l0,0,.009.018.042.073a4.046,4.046,0,0,1,.531.363l.029,0a1.922,1.922,0,0,1,.921.536.9.9,0,0,0,.217.446.489.489,0,0,1-.071.3,10.039,10.039,0,0,1-.738.989,2.863,2.863,0,0,1-.429.452,5.287,5.287,0,0,1-.356.884L30.113,13.4c-2.793,1.134-5.978,1.594-8.7,2.728a.944.944,0,0,0-.455.378c-.606.05-1.215.089-1.825.1a.694.694,0,0,0-.649.422" transform="translate(0 0)" fill="#d1b97d"/>
      <path id="Path_1039" data-name="Path 1039" d="M2.721,5.884C1.05,7.65-.3,9.931.713,12.387c.877,2.129,3.068,3.5,5.119,4.318,5.776,2.3,13.311,1.537,19.115-.271A25.655,25.655,0,0,0,33.1,12.286c1.841-1.434,4.157-3.605,3.789-6.2C36.548,3.648,33.854,1.948,31.822,1,28.707-.451,25.07.152,21.742.117,15.153.048,7.628,1.07,2.7,5.867c-.133.13.071.333.2.2C6.71,2.366,12.119,1.01,17.267.558,19.75.34,22.223.449,24.71.378c3.215-.092,6.081.045,8.835,1.9A6.684,6.684,0,0,1,36.539,5.7c.484,1.818-.659,3.572-1.862,4.821a21.186,21.186,0,0,1-6.6,4.435,34.169,34.169,0,0,1-16.053,2.66c-3.086-.2-6.216-.768-8.76-2.645C-.123,12.474.173,9,2.891,6.054c.105-.113-.063-.283-.17-.17" transform="translate(0 0)" fill="#282828"/>
      <path id="Path_1040" data-name="Path 1040" d="M35.436,7.174a12.9,12.9,0,0,0-9.068-3c-3.371.074-6.75-.071-10.106.332C10.587,5.19,4.517,7.1,1.3,12.165c-.194.305.312.6.485.283,2.775-5.105,9.7-6.866,15.021-7.443,2.536-.275,5.056-.209,7.6-.25a37.321,37.321,0,0,1,4.549-.008,11.551,11.551,0,0,1,6.106,2.8c.262.216.639-.159.375-.375" transform="translate(0 0)" fill="#282828"/>
      <path id="Path_1041" data-name="Path 1041" d="M0,11.4C.21,12.694.35,14.017.628,15.3a7.216,7.216,0,0,0,3.719,4.56c4.423,2.563,10.305,2.468,15.221,1.833a28.65,28.65,0,0,0,13.986-5.427c1.647-1.283,3.521-3.015,3.819-5.211A12.3,12.3,0,0,0,37.006,6.5a.258.258,0,0,0-.5.137,14.055,14.055,0,0,1,.359,3.891c-.1,2.675-2.76,4.747-4.787,6.122a29.5,29.5,0,0,1-13.672,4.6c-4.487.444-9.771.44-13.771-1.9a6.726,6.726,0,0,1-3.544-4.776C.9,13.476.73,12.362.549,11.253c-.058-.359-.6-.206-.545.15" transform="translate(0 0)" fill="#282828"/>
      <path id="Path_1042" data-name="Path 1042" d="M3.439,6.215C1.909,7.754.594,9.78,1.5,12c.792,1.932,2.832,3.158,4.686,3.889,5.523,2.177,12.66,1.482,18.234-.149a24.443,24.443,0,0,0,8.159-4.028C34.16,10.483,36.134,8.624,35.8,6.4c-.326-2.19-2.8-3.636-4.607-4.483-2.987-1.4-6.373-.843-9.564-.887C15.39.944,8.206,1.788,3.422,6.2c-.136.126.068.329.2.2,4.667-4.3,11.658-5.14,17.749-5.113,3.481.016,7.1-.529,10.3,1.156,1.453.767,3.28,1.908,3.769,3.591.606,2.087-1.167,3.925-2.627,5.134-5.019,4.158-11.977,5.664-18.36,5.655-3.246,0-6.673-.262-9.57-1.86A6.4,6.4,0,0,1,1.641,11.54c-.616-2.013.639-3.78,1.968-5.155.108-.111-.061-.28-.17-.17" transform="translate(0 0)" fill="#282828"/>
    </g>
  </g>
  <g id="Group_1066" data-name="Group 1066" transform="translate(181.755 87)">
    <g id="Group_1065" data-name="Group 1065" clip-path="url(#clip-path-11)">
      <path id="Path_1043" data-name="Path 1043" d="M21.075,22.672S11.55,9,11.664,8.806a6.3,6.3,0,0,0,1-2.834L9.475.873C4.63-.784-.519,3.647.423,6.737l3.7,5.482H6.543l8.8,13.895c2.891.484,4.856-.576,5.736-3.442" transform="translate(-0.042 -0.07)" fill="#f3efe7"/>
      <path id="Path_1044" data-name="Path 1044" d="M12.938,10.989a.793.793,0,0,0-.546-.514.83.83,0,0,0-1,.568c-.028.09-.06.176-.092.265l0,0c-.024.049-.048.1-.073.148-.047.089-.1.176-.152.26-.025.04-.05.077-.077.115a.41.41,0,0,0-.029.051,2.028,2.028,0,0,1-.367.386c-.049.047-.118.094-.173.145.012-.005.006.006-.046.043l-.011.01.007-.007c-.044.032-.088.062-.132.092a4.091,4.091,0,0,1-.506.284l-.076.034-.02.009-.042.012c-.082.029-.167.056-.251.08a.9.9,0,0,0-.579.1,3.668,3.668,0,0,1-.5,0,.815.815,0,0,0-.812.812.834.834,0,0,0,.812.813c.035,0,.07,0,.105,0a4.729,4.729,0,0,0,.425.679,2.459,2.459,0,0,0,.8.77,1.324,1.324,0,0,0,1.321-.026,2.686,2.686,0,0,0,.65-.62,5.426,5.426,0,0,0,1.148-2.515,3.556,3.556,0,0,0,.537-1.11.843.843,0,0,0-.321-.885" transform="translate(-1.013 -1.42)" fill="#c9c6c0"/>
      <path id="Path_1045" data-name="Path 1045" d="M10.838,12.769a.314.314,0,0,1,.046-.043.162.162,0,0,0-.05.047l0,0Z" transform="translate(-1.472 -1.729)" fill="#c9c6c0"/>
      <path id="Path_1046" data-name="Path 1046" d="M6.759,2.6a.569.569,0,0,0-.212-.079.67.67,0,0,0-.183-.1c-.571-.191-1.157.373-1.546.713-.074.064-.137.137-.208.2A5.646,5.646,0,0,0,3.46,4.37a.275.275,0,0,0,.054.426,1.65,1.65,0,0,0,.34.12.892.892,0,0,0,.994.137,3.207,3.207,0,0,0,.7-.435c.061-.046.113-.1.172-.15s.111-.067.163-.1a3.673,3.673,0,0,0,.663-.555,1.151,1.151,0,0,0,.26-.486c.155-.232.232-.546-.048-.726" transform="translate(-0.46 -0.324)" fill="#c9c6c0"/>
      <path id="Path_1047" data-name="Path 1047" d="M46.153,27.1s-9.525-13.675-9.411-13.866a6.3,6.3,0,0,0,1-2.834L34.553,5.3c-4.845-1.657-9.993,2.774-9.051,5.863l3.7,5.482h2.422l8.8,13.895c2.891.484,4.856-.576,5.736-3.442" transform="translate(-3.449 -0.671)" fill="#f3efe7"/>
      <path id="Path_1048" data-name="Path 1048" d="M38.016,15.415a.793.793,0,0,0-.546-.514.83.83,0,0,0-1,.568c-.028.09-.06.176-.092.265l0,0c-.024.049-.048.1-.073.148-.047.089-.1.176-.152.26-.025.04-.05.077-.077.115a.411.411,0,0,0-.029.051,2.028,2.028,0,0,1-.367.386c-.049.047-.118.094-.173.145.012-.005.006.006-.046.043l-.011.01.007-.007c-.044.032-.088.062-.132.092a4.091,4.091,0,0,1-.506.284l-.076.034-.02.009-.042.012c-.082.029-.167.056-.251.08a.9.9,0,0,0-.579.1,3.668,3.668,0,0,1-.5,0,.815.815,0,0,0-.812.812.834.834,0,0,0,.812.813c.035,0,.07,0,.105,0a4.8,4.8,0,0,0,.424.679,2.47,2.47,0,0,0,.8.77A1.326,1.326,0,0,0,36,20.545a2.686,2.686,0,0,0,.65-.62A5.426,5.426,0,0,0,37.8,17.41a3.556,3.556,0,0,0,.537-1.11.843.843,0,0,0-.321-.885" transform="translate(-4.42 -2.021)" fill="#c9c6c0"/>
      <path id="Path_1049" data-name="Path 1049" d="M35.916,17.2a.314.314,0,0,1,.046-.043.162.162,0,0,0-.05.047l0,0Z" transform="translate(-4.878 -2.33)" fill="#c9c6c0"/>
      <path id="Path_1050" data-name="Path 1050" d="M31.837,7.024a.569.569,0,0,0-.212-.079.67.67,0,0,0-.183-.1c-.571-.191-1.157.373-1.546.713-.074.064-.137.137-.208.2A5.646,5.646,0,0,0,28.538,8.8a.275.275,0,0,0,.054.426,1.65,1.65,0,0,0,.34.12.892.892,0,0,0,.994.137,3.207,3.207,0,0,0,.7-.435c.061-.046.113-.1.172-.15s.111-.067.163-.1a3.673,3.673,0,0,0,.663-.555,1.151,1.151,0,0,0,.26-.486c.155-.232.232-.546-.048-.726" transform="translate(-3.866 -0.926)" fill="#c9c6c0"/>
      <path id="Path_1051" data-name="Path 1051" d="M.716,6.9C3.755,8.668,12.3,1.946,9.175.308,6.208-1.246-2.107,3.4.5,7.022c.118.162.382.019.274-.161C-1.2,3.564,5.136.29,7.78.334c3.5.058.787,3.249-.568,4.275C5.634,5.8,2.842,7.771.832,6.7a.116.116,0,0,0-.117.2" transform="translate(0 0)" fill="#282828"/>
      <path id="Path_1052" data-name="Path 1052" d="M4.2,13.062c3.579,1.158,7.928-1.66,8.887-5.168a.176.176,0,0,0-.34-.1,7.5,7.5,0,0,1-8.484,5.036.118.118,0,0,0-.063.227" transform="translate(-0.559 -1.043)" fill="#282828"/>
      <path id="Path_1053" data-name="Path 1053" d="M2.9,4.935A4.058,4.058,0,0,1,4.391,3.352C4.87,3,5.834,2.308,6.469,2.6,7.545,3.089,5.9,4.41,5.44,4.719a2.283,2.283,0,0,1-.771.375c-.461.1-1.687-.057-.955-.783A.134.134,0,0,0,3.552,4.1c-1.276.767.093,1.463,1.012,1.362A3.475,3.475,0,0,0,7.15,3.275C7.374,2.1,5.99,2.132,5.274,2.446A4.716,4.716,0,0,0,2.687,4.877c-.039.137.163.188.211.058" transform="translate(-0.364 -0.307)" fill="#282828"/>
      <path id="Path_1054" data-name="Path 1054" d="M22.911,25.907c.02,2.461-2.985,4.253-5.227,3.656a.174.174,0,0,0-.092.335c2.42.95,5.7-1.46,5.672-3.992a.177.177,0,0,0-.353,0" transform="translate(-2.373 -3.496)" fill="#282828"/>
      <path id="Path_1055" data-name="Path 1055" d="M21.032,23.805c.016,2.1-2.538,3.594-4.444,3.107a.174.174,0,0,0-.092.335c2.083.84,4.912-1.271,4.889-3.442a.176.176,0,0,0-.353,0" transform="translate(-2.225 -3.211)" fill="#282828"/>
      <path id="Path_1056" data-name="Path 1056" d="M19.592,20.707c.02,2.461-2.985,4.253-5.227,3.656a.174.174,0,0,0-.092.335c2.42.95,5.7-1.46,5.672-3.992a.177.177,0,0,0-.353,0" transform="translate(-1.922 -2.79)" fill="#282828"/>
      <path id="Path_1057" data-name="Path 1057" d="M18.044,19.269c.016,2.1-2.537,3.594-4.443,3.107a.174.174,0,0,0-.092.335c2.083.84,4.912-1.271,4.889-3.442a.177.177,0,0,0-.353,0" transform="translate(-1.819 -2.595)" fill="#282828"/>
      <path id="Path_1058" data-name="Path 1058" d="M16.6,16.171c.02,2.461-2.985,4.253-5.227,3.656a.174.174,0,0,0-.092.335c2.42.95,5.7-1.46,5.672-3.992a.177.177,0,0,0-.353,0" transform="translate(-1.517 -2.174)" fill="#282828"/>
      <path id="Path_1059" data-name="Path 1059" d="M14.947,14.4C14.964,16.5,12.41,18,10.5,17.508a.174.174,0,0,0-.092.335c2.083.84,4.912-1.271,4.889-3.442a.177.177,0,0,0-.353,0" transform="translate(-1.398 -1.933)" fill="#282828"/>
      <path id="Path_1060" data-name="Path 1060" d="M13.507,11.3c.02,2.461-2.985,4.253-5.227,3.656a.174.174,0,0,0-.092.335c2.42.95,5.7-1.46,5.672-3.992a.177.177,0,0,0-.353,0" transform="translate(-1.096 -1.513)" fill="#282828"/>
      <path id="Path_1061" data-name="Path 1061" d="M7.306,14.1c2.905,4.618,5.85,9.211,8.778,13.815.124.194.434.014.309-.181-2.953-4.59-5.892-9.188-8.87-13.761-.087-.135-.3-.01-.217.127" transform="translate(-0.99 -1.891)" fill="#282828"/>
      <path id="Path_1062" data-name="Path 1062" d="M13.364,10.153c2.905,4.527,5.875,9.012,8.806,13.522.109.168.378.011.268-.156-2.952-4.5-5.865-9.02-8.841-13.5-.1-.143-.327-.011-.232.136" transform="translate(-1.812 -1.353)" fill="#282828"/>
      <path id="Path_1063" data-name="Path 1063" d="M.428,8.3q.83,1.29,1.663,2.578A19.787,19.787,0,0,0,3.7,13.314c.161.18.4-.048.311-.239A20.214,20.214,0,0,0,2.4,10.582C1.859,9.755,1.309,8.93.761,8.105c-.137-.2-.469-.015-.333.2" transform="translate(-0.054 -1.089)" fill="#282828"/>
      <path id="Path_1064" data-name="Path 1064" d="M10.717,1.33c.554.86,1.105,1.721,1.664,2.578a19.853,19.853,0,0,0,1.613,2.436c.161.18.4-.048.311-.239a20.214,20.214,0,0,0-1.613-2.493c-.544-.827-1.094-1.651-1.641-2.477-.137-.2-.469-.015-.334.2" transform="translate(-1.451 -0.143)" fill="#282828"/>
      <path id="Path_1065" data-name="Path 1065" d="M25.794,11.33c3.039,1.765,11.583-4.958,8.459-6.6-2.967-1.555-11.282,3.088-8.676,6.714.118.162.382.019.274-.161-1.971-3.3,4.363-6.571,7.008-6.527,3.5.058.787,3.249-.568,4.275-1.579,1.2-4.37,3.162-6.38,2.095a.116.116,0,0,0-.117.2" transform="translate(-3.406 -0.602)" fill="#282828"/>
      <path id="Path_1066" data-name="Path 1066" d="M29.274,17.487c3.579,1.158,7.928-1.66,8.888-5.168a.177.177,0,0,0-.34-.1,7.5,7.5,0,0,1-8.484,5.036.118.118,0,0,0-.063.227" transform="translate(-3.965 -1.644)" fill="#282828"/>
      <path id="Path_1067" data-name="Path 1067" d="M27.976,9.36a4.058,4.058,0,0,1,1.492-1.583c.48-.349,1.443-1.043,2.078-.754,1.076.491-.564,1.812-1.028,2.121a2.283,2.283,0,0,1-.771.375c-.461.1-1.687-.057-.955-.783a.134.134,0,0,0-.162-.209c-1.276.767.093,1.463,1.012,1.362A3.475,3.475,0,0,0,32.228,7.7c.224-1.171-1.16-1.142-1.876-.829A4.716,4.716,0,0,0,27.765,9.3c-.039.137.163.188.211.058" transform="translate(-3.771 -0.908)" fill="#282828"/>
      <path id="Path_1068" data-name="Path 1068" d="M47.989,30.333c.02,2.461-2.985,4.253-5.227,3.656a.174.174,0,0,0-.092.335c2.42.95,5.7-1.46,5.672-3.992a.177.177,0,0,0-.353,0" transform="translate(-5.78 -4.097)" fill="#282828"/>
      <path id="Path_1069" data-name="Path 1069" d="M46.109,28.231c.016,2.1-2.537,3.594-4.443,3.107a.174.174,0,0,0-.092.335c2.083.84,4.912-1.271,4.889-3.442a.177.177,0,0,0-.353,0" transform="translate(-5.631 -3.812)" fill="#282828"/>
      <path id="Path_1070" data-name="Path 1070" d="M44.67,25.133c.02,2.461-2.985,4.253-5.227,3.656a.174.174,0,0,0-.092.335c2.42.95,5.7-1.46,5.672-3.992a.177.177,0,0,0-.353,0" transform="translate(-5.329 -3.391)" fill="#282828"/>
      <path id="Path_1071" data-name="Path 1071" d="M43.122,23.694c.016,2.1-2.537,3.594-4.443,3.107a.174.174,0,0,0-.092.335c2.083.84,4.912-1.271,4.889-3.442a.177.177,0,0,0-.353,0" transform="translate(-5.225 -3.196)" fill="#282828"/>
      <path id="Path_1072" data-name="Path 1072" d="M41.682,20.6c.02,2.461-2.985,4.253-5.227,3.656a.174.174,0,0,0-.092.335c2.42.95,5.7-1.46,5.672-3.992a.177.177,0,0,0-.353,0" transform="translate(-4.923 -2.775)" fill="#282828"/>
      <path id="Path_1073" data-name="Path 1073" d="M40.024,18.826c.016,2.1-2.537,3.594-4.443,3.107a.174.174,0,0,0-.092.335c2.083.84,4.912-1.271,4.889-3.442a.177.177,0,0,0-.353,0" transform="translate(-4.804 -2.534)" fill="#282828"/>
      <path id="Path_1074" data-name="Path 1074" d="M38.585,15.728c.02,2.461-2.985,4.253-5.227,3.656a.174.174,0,0,0-.092.335c2.42.95,5.7-1.46,5.672-3.992a.177.177,0,0,0-.353,0" transform="translate(-4.502 -2.114)" fill="#282828"/>
      <path id="Path_1075" data-name="Path 1075" d="M32.384,18.53c2.905,4.617,5.85,9.211,8.778,13.815.124.194.434.014.309-.181-2.953-4.59-5.893-9.188-8.87-13.761-.087-.135-.3-.01-.217.127" transform="translate(-4.396 -2.492)" fill="#282828"/>
      <path id="Path_1076" data-name="Path 1076" d="M38.442,14.578C41.347,19.1,44.317,23.59,47.247,28.1c.109.168.378.011.268-.156-2.952-4.5-5.865-9.021-8.841-13.5-.1-.143-.327-.011-.232.136" transform="translate(-5.219 -1.954)" fill="#282828"/>
      <path id="Path_1077" data-name="Path 1077" d="M25.5,12.725c.554.86,1.105,1.721,1.664,2.578a19.853,19.853,0,0,0,1.613,2.436c.161.18.4-.048.311-.239a20.215,20.215,0,0,0-1.613-2.493c-.544-.827-1.094-1.651-1.641-2.477-.137-.2-.469-.015-.334.2" transform="translate(-3.46 -1.69)" fill="#282828"/>
      <path id="Path_1078" data-name="Path 1078" d="M35.795,5.755c.554.86,1.105,1.721,1.664,2.578a19.788,19.788,0,0,0,1.613,2.436c.161.18.4-.048.311-.239A20.214,20.214,0,0,0,37.77,8.037c-.544-.827-1.094-1.651-1.641-2.477-.137-.2-.469-.015-.334.2" transform="translate(-4.858 -0.744)" fill="#282828"/>
    </g>
  </g>
</svg>
