<svg id="Group_1070" data-name="Group 1070" xmlns="http://www.w3.org/2000/svg" xmlns:xlink="http://www.w3.org/1999/xlink" width="255.577" height="137.397" viewBox="0 0 255.577 137.397">
  <defs>
    <clipPath id="clip-path">
      <rect id="Rectangle_1505" data-name="Rectangle 1505" width="255.577" height="137.397" fill="none"/>
    </clipPath>
  </defs>
  <g id="Group_1069" data-name="Group 1069" clip-path="url(#clip-path)">
    <path id="Path_1079" data-name="Path 1079" d="M195.413,98.345c-1.912-11.767-4.037-23.669-8.627-34.726-.036-.085-.085-.153-.124-.232a3.785,3.785,0,0,0-1.191-3.719,2.775,2.775,0,0,0,.811-1.216c1.319-3.768.493-8.174.353-12.118a120.031,120.031,0,0,0-1.025-12.048A1.9,1.9,0,0,0,185,33.067a2.938,2.938,0,0,0-3.032-2.242,30.67,30.67,0,0,0-6.6.833c-2.968-.5-6.132-.049-9.127.052q-6.068.2-12.137.415c-8.119.3-16.2.609-24.269,1.627-.941.119-1.781-5.587-1.781-5.587L106.523,23.9s-9.046,10.9-15.7,10.858q-4.664-.029-9.327-.042c-9.116-.025-19.316-1.155-28.279.865-.355.068-.711.133-1.06.212a3.351,3.351,0,0,0-4.02.91c-4.852,6.415-4.557,15.841-5.6,23.467-.571,4.171-2.235,17.3,5.214,16.728a2.6,2.6,0,0,0,2.436-1.854c.542-2.453-.806-4.742-.993-7.191a47.521,47.521,0,0,1,.494-8.927q.137-1.206.269-2.392,2.468,8.536,4.4,17.215C51.89,79.259,51.23,85.546,50.14,91.444c-.753,4.076-8.1,17.34-8.1,17.34s-5.272,4.537-2.818,6.869c3.072,2.917,7.556,2.784,11.441,1.122,4.808-2.055,6.351-7.447,7.282-12.37,1.276-6.748,1.539-13.742,2.5-20.548a19.811,19.811,0,0,0,2.216,2.615c3.85,9.058,15.9,13.829,24.264,17.295,12.579,5.208,26.4,7.909,40.024,6.52,11.174-1.14,35.655-18.413,35.655-18.413s2.747.931,5.767-2.643c.917,4.149,1.836,8.3,2.785,12.44,1.774,7.745,6.154,17.682,15.934,16.16,9.443-1.468,9.5-12.239,8.321-19.486M50.523,51.785c.051-.383.111-.762.166-1.143.051.758.1,1.519.172,2.275-.113-.377-.222-.756-.338-1.132" transform="translate(2.288 1.418)" fill="#e3c9af"/>
    <path id="Path_1080" data-name="Path 1080" d="M56.031,105.19a.954.954,0,0,0-1.839-.507,8.7,8.7,0,0,1-1.512,2.564,1.049,1.049,0,0,0-.859.239c-.028.023-.057.04-.085.062a.937.937,0,0,0-.833,0,13.864,13.864,0,0,1-10.435.486.91.91,0,0,0-.439-.29.945.945,0,0,0-.123,0,.9.9,0,0,0-.649-.694.971.971,0,0,0-1.173.666.36.36,0,0,1-.007.049.734.734,0,0,0-.181.063l-.194.148a.954.954,0,0,0-.244.421,2.39,2.39,0,0,0-.166.927,2.679,2.679,0,0,0,.167.93,2.785,2.785,0,0,0,1.3,1.532,1.006,1.006,0,0,0,.781.322.961.961,0,0,0,1.089.1c.026-.018.042-.043.067-.062a9.77,9.77,0,0,0,6.733.619c1.728.914,3.821.086,5.26-1.038a9.158,9.158,0,0,0,3.167-4.775.874.874,0,0,0-.082-.691,8.23,8.23,0,0,0,.255-1.061" transform="translate(2.212 6.17)" fill="#986047"/>
    <path id="Path_1081" data-name="Path 1081" d="M163.8,81.439a6.7,6.7,0,0,0-2.542,2.75,15.875,15.875,0,0,1-2.849,3.414,62.554,62.554,0,0,1-5.675,4.676.931.931,0,0,0-.922.18c-.99.845-2.016,1.641-3.068,2.4a.846.846,0,0,0-.88.015,71.293,71.293,0,0,1-23.024,8.557c-.014,0-.026,0-.042,0a57.106,57.106,0,0,1-6.665.753.978.978,0,0,0-.5-.226A151.287,151.287,0,0,1,75.109,91.929a.9.9,0,0,0-.478-.377,30.351,30.351,0,0,1-3.12-1.249l-1.2-.818a.817.817,0,0,0-.264-.672l-8.313-7.165a1.085,1.085,0,0,0-.56-.245l-.013-.015c0-.006,0-.012,0-.019v-.448a.725.725,0,0,0-.082-.367.863.863,0,0,0-.5-.5.721.721,0,0,0-.368-.083L59.954,80a.946.946,0,0,0-.421.246l-.149.193a.945.945,0,0,0-.13.481v.448a1.052,1.052,0,0,0,.28.676l0,0a1.042,1.042,0,0,0,.108.458,10.141,10.141,0,0,0,3.033,3.517.788.788,0,0,0,.239.935,33.056,33.056,0,0,0,5.055,3.633,44.789,44.789,0,0,0,4.486,3.166.826.826,0,0,0,.46.63q1.743.926,3.516,1.8a.887.887,0,0,0,.265.326,22.651,22.651,0,0,0,6.536,3.07c.732.267,1.468.521,2.2.781a.808.808,0,0,0,.357.284c5.12,2.161,10.453,4.36,16.005,4.861,1.716.475,3.435.939,5.162,1.377a.865.865,0,0,0,.868-.239c7.166,1.256,14.477.312,21.573-1.115a.77.77,0,0,0,.633-.555,50.425,50.425,0,0,0,21.12-9.563.829.829,0,0,0,.643-.146,66.531,66.531,0,0,0,7.612-5.993,17.713,17.713,0,0,0,3.05-3.4c.654-1.016,1.173-2.221,2.3-2.788,1.1-.549.133-2.195-.962-1.646" transform="translate(3.515 4.744)" fill="#986047"/>
    <path id="Path_1082" data-name="Path 1082" d="M188.019,102.536a.959.959,0,0,0-1.3.342c-.282.655-.6,1.349-.949,2.036a.928.928,0,0,0-1.011.44,10.081,10.081,0,0,1-.738,1.208c-1.9,2.38-5.42,2.7-8.352,2.549a.861.861,0,0,0-.488.122,17.46,17.46,0,0,1-5.876-1.694,9.242,9.242,0,0,1-1.159-1.252.983.983,0,0,0-1.3-.342.959.959,0,0,0-.342,1.3c.178.236.372.454.565.676a.834.834,0,0,0,.45.833c.256.144.52.273.783.4.053.047.111.088.166.133a.834.834,0,0,0,.248.806,11.21,11.21,0,0,0,10.718,1.887.857.857,0,0,0,.13.017c4.6-.256,7.172-4.346,8.805-8.164a.985.985,0,0,0-.342-1.3" transform="translate(9.869 6.076)" fill="#986047"/>
    <path id="Path_1083" data-name="Path 1083" d="M108.6,47.4c-.082.03-.072.029,0,0" transform="translate(6.439 2.812)" fill="#006098"/>
    <path id="Path_1084" data-name="Path 1084" d="M131.61,28.613c-7.515-8.992-20.368-9.087-30.675-5.6-5.434,1.841-10.469,4.975-13.551,9.929a1.253,1.253,0,0,0,.073,1.524c-.014.04-.033.078-.048.118a.89.89,0,0,0-.781.242c-2.749,2.567-2.3,6.8-1.432,10.1a26.574,26.574,0,0,0,1.141,3.344c.013.077.021.156.037.233a12.151,12.151,0,0,0,4.5,7.954c3.51,4.411,9.216,6.731,14.805,7.19a41.935,41.935,0,0,0,12.3-1.151c1.707-.373,3.6-.813,4.809-2.173a4.339,4.339,0,0,0,.675-5.045c.007-.139,0-.28.007-.419.708.011,1.417.016,2.123-.015a1.261,1.261,0,0,0,1.382.38c5.249-1.568,8.319-6.9,8.984-12.079a18.95,18.95,0,0,0-4.344-14.539m-9.627,4.328a1.3,1.3,0,0,0,1.02-.412s.088-.087.139-.14c0,.016.088-.028.061-.029l.129-.035c.065,0,.2-.013.225-.014l.069,0s.012.01.05.019c.124.033.248.066.371.107a2.932,2.932,0,0,1,.5.257,13.38,13.38,0,0,1,1.274.856c.123.091.209.162.427.345.195.163.385.332.571.505q.559.52,1.066,1.09a11.239,11.239,0,0,1,.776.96c.2.276.376.569.556.856l-.579-.021-3.337-.136-5.6-.228q1.095-2.013,2.28-3.979m-10.524-5.488a19.931,19.931,0,0,1,3.609-.006,1.373,1.373,0,0,0,.516.272c.181.05.356.117.531.182a5.641,5.641,0,0,1,.878.513c.089.073.173.154.257.233-.874,1.5-1.783,2.987-2.774,4.417a1.3,1.3,0,0,0-.421.446c-.083.148-.169.3-.265.436,0,0-.086.118-.122.171-.032.037-.072.088-.081.1-.112.127-.229.251-.352.37-.077.073-.158.143-.237.214l-.039.037a5.6,5.6,0,0,1-.894.548l-.118.056c-.047.017-.114.044-.128.05-.179.065-.363.12-.549.166-.059.014-.308.059-.346.072-.161.018-.323.029-.485.032-.209,0-.414-.02-.622-.024h-.022l-.01,0c-.09-.018-.182-.031-.271-.051a6.15,6.15,0,0,1-.6-.163c-.085-.028-.168-.059-.253-.091a.459.459,0,0,1-.048-.02c-.187-.09-.371-.187-.548-.294-.079-.049-.157-.1-.233-.151-.035-.023-.274-.208-.1-.067a1.945,1.945,0,0,0-.6-.321q-1.4-2.714-2.8-5.428a14.563,14.563,0,0,1,7.125-1.692M94.127,34a18.8,18.8,0,0,1,3.138-1.968c.026.01.054.016.079.025l.117.047.114.05c.122.057.244.118.363.181a7.605,7.605,0,0,1,.7.421l.127.09c.218.256.439.514.64.783a14.1,14.1,0,0,1,1.142,1.787,4.819,4.819,0,0,0,.769,1.912c-3.232-.047-6.493.412-9.7.025A31.43,31.43,0,0,1,94.127,34m6.415,13.371-1.985,2.494c-.359.451-.739.9-1.087,1.368a9.189,9.189,0,0,1-3.98-1.831c-.051-.041-.1-.083-.154-.126-.075-.064-.153-.119-.23-.173a24.987,24.987,0,0,1-1.818-2.791c-.135-.386-.269-.771-.392-1.161-.015-.047-.029-.094-.043-.142.779-.1,1.559-.194,2.341-.262l4.011.046,4.488.335a.724.724,0,0,0,.052.232.71.71,0,0,0,.178.278q-.691.868-1.381,1.734m11.236,9.278c-1.324.074-2.651.067-3.977.025a9.547,9.547,0,0,1-3.661-.537,2.608,2.608,0,0,0-.263-.1c1.795-2.238,3.525-4.527,5.172-6.877a2.43,2.43,0,0,0,1.049-.222c-.03.014-.054.023-.076.032l.055-.019c.124-.042.246-.086.371-.123.2-.059.4-.108.607-.147.044-.008.079-.014.111-.018.077-.007.156-.015.234-.019.129-.007.26,0,.39,0,1.19,1.076,2.351,2.184,3.452,3.352q1.052,1.119,2.048,2.288c.268.316.531.636.792.957a17.356,17.356,0,0,1-6.3,1.407M130.429,44.9a30.3,30.3,0,0,1-2.305,2.872c-.15.164-.308.323-.462.485-.456.4-.922.794-1.4,1.167-.034.026-.085.066-.115.088l-.271.2c-.217.162-.436.322-.656.481-.334.242-.671.478-1.007.715q-2.02-2.263-4.04-4.523a1.2,1.2,0,0,0-.636-.349c-.072-.1-.148-.2-.22-.305-.023-.032-.044-.066-.068-.1a1.45,1.45,0,0,0,.014-.428,101,101,0,0,0,11.559-1.49,10.713,10.713,0,0,1-.389,1.181" transform="translate(5.015 1.239)" fill="#006098"/>
    <path id="Path_1085" data-name="Path 1085" d="M137.132,40c-.757-9.486-9.44-16.64-18.387-19.243a.848.848,0,0,0-1.028.423,35.634,35.634,0,0,0-4.417-.874,16.719,16.719,0,0,0-7.711.438c-.02.006-.03.02-.048.028a27.341,27.341,0,0,0-13.793,5.877.416.416,0,0,0-.131.179l-.017.011a21.23,21.23,0,0,0-8.039,15.176.891.891,0,0,0,.061.413c.007.358.029.713.055,1.066a13.462,13.462,0,0,0,.144,2.624.835.835,0,0,0-.064.445,22.451,22.451,0,0,0,.579,3.032,1,1,0,0,0-.291.433c-.251.792.388,1.8.707,2.506a25.93,25.93,0,0,0,2.67,4.581,28.148,28.148,0,0,0,1.947,2.372,15.662,15.662,0,0,0,3.951,3.882,12.894,12.894,0,0,0,2.972,2.695c2.326,1.579,5.162,2.941,8.021,2.874,1,.363,2.3-.007,3.315.04a8.086,8.086,0,0,1,4.042,1.349.963.963,0,0,0,1.3-.341.924.924,0,0,0,.049-.144,20.523,20.523,0,0,0,4.828-1.19,11.215,11.215,0,0,0,1.385-.588c.512-.284.637-.953.825-1.471q.529-1.454,1.021-2.921a.74.74,0,0,0,.023-.264c.025-.006.051-.014.075-.022a.921.921,0,0,0,.636-1.079c.158-.211.309-.425.471-.631a16.166,16.166,0,0,0,1.569-1.048c.482-.367.007-1.194-.481-.822-.2.154-.41.3-.619.44a.389.389,0,0,0-.592.043c-.177.216-.341.443-.514.663q-.685.392-1.406.718a28.826,28.826,0,0,1-7.031,1.238,29.578,29.578,0,0,1-3.728-.065,8.3,8.3,0,0,0-3.006-.02A49.668,49.668,0,0,1,95.99,59.273a38.161,38.161,0,0,1-8.076-8.162.939.939,0,0,0-.5-.388,24.206,24.206,0,0,1-1.838-7.291,8.917,8.917,0,0,1,.194-1.337.89.89,0,0,0-.227-.844,19.453,19.453,0,0,1,7.4-13.06.83.83,0,0,0,.232-.875,39.471,39.471,0,0,1,10.709-4.786,37.368,37.368,0,0,1,11.124-.207.352.352,0,0,0,.332-.124,27.3,27.3,0,0,1,5.772,1.432.3.3,0,0,0,.059.01c8.067,3.351,15.4,10.674,13.936,19.986a.911.911,0,0,0-.111.181c-.6,1.624-1.267,3.217-2.021,4.773q-.551,1.139-1.154,2.249c-.2.371-.408.737-.617,1.1-.1.182-.212.364-.318.546l-.129.218a.539.539,0,0,0-.117.174.947.947,0,0,0-.149,1.845,1.427,1.427,0,0,0,.6.026,2,2,0,0,1,1.266.445.966.966,0,0,0,1.349,0l.012-.015a.751.751,0,0,0,.1.035c1.029.214,1.533-.532,1.923-1.364a13.549,13.549,0,0,0,.913-2.623,22.789,22.789,0,0,0,.492-3.177,31.19,31.19,0,0,0,.7-7.156.874.874,0,0,0-.721-.883" transform="translate(4.957 1.191)" fill="#cbaa68"/>
    <path id="Path_1086" data-name="Path 1086" d="M114.543,69.346a12.722,12.722,0,0,0-12.037-2.668,11.3,11.3,0,0,0-3.333,1.7,4.565,4.565,0,0,0-2.6,1.853,4.821,4.821,0,0,0-1.933,3.051,6.738,6.738,0,0,0-.022,2.253l-.005.034a1.047,1.047,0,0,0-.079.466c-.012.077-.028.154-.038.231a.737.737,0,0,0,.18.628,6.415,6.415,0,0,0,.727,1.718q.1.331.2.659a.866.866,0,0,0,.727.646.656.656,0,0,0,.025.2c.672,2,2.472,3.028,4.313,3.823a17.544,17.544,0,0,0,6.734,1.561c3.96.042,8.069-1.912,9.814-5.618s.257-7.911-2.662-10.543" transform="translate(5.605 3.924)" fill="#d12e2c"/>
    <path id="Path_1087" data-name="Path 1087" d="M137.546,56.15c-3.7-1.882-7.647-1.5-11.381.09-3.484,1.488-6.8,4.086-8.013,7.809-1.163,3.584-.073,7.875,3.188,9.949a.842.842,0,0,0,1.173-.207.769.769,0,0,0,.057-.059,9.9,9.9,0,0,1,3.754-2.925.815.815,0,0,0,.159-.01,21.591,21.591,0,0,1,9.814-.287,6.537,6.537,0,0,1,3.3,2.507.95.95,0,0,0,.351.331c-.168.224-.332.451-.519.66-.816.912.528,2.265,1.349,1.347,5.284-5.9,4-15.529-3.233-19.207" transform="translate(6.983 3.256)" fill="#b68557"/>
    <path id="Path_1088" data-name="Path 1088" d="M139.969,53.095c-.157.014-.312.018-.469.031a.474.474,0,0,0-.424-.668c-2.689-.026-5.376.053-8.061.192l-.017,0-8.52-.111a.444.444,0,0,0-.46.476c-.071,0-.141-.005-.212-.006a.448.448,0,0,0-.443.575.465.465,0,0,0,.44.606c.294,0,.589,0,.883,0a.452.452,0,0,0,.238.069q1.781,0,3.564-.049l6.492.037a.449.449,0,0,0,.264.087q3.367,0,6.726-.284c.607-.052.612-1.005,0-.953" transform="translate(7.199 3.112)" fill="#986047"/>
    <path id="Path_1089" data-name="Path 1089" d="M139.876,73.936a1.932,1.932,0,0,0-1.238-.195c-.589.031-1.179.065-1.769.1l-2.8.151c-3.038-.065-6.079-.06-9.118.031a.463.463,0,0,0-.269.1c-.959-.056-1.918-.118-2.876-.191-.513-.039-.587.62-.242.862-.583.054-.581.972.025.947l6.951-.3a.455.455,0,0,0,.337-.159c2.4.1,4.793.155,7.191.157,1.176,0,2.364.033,3.539-.031.806-.043.863-1.063.265-1.474" transform="translate(7.186 4.374)" fill="#986047"/>
    <path id="Path_1090" data-name="Path 1090" d="M122.371,84.61c-.18-.764-.337-1.531-.48-2.3q.035-1.333.069-2.668a.42.42,0,0,0-.123-.32c-.017-.512-.049-1.023-.1-1.531q.04-1.065.082-2.126l.046-1.221a1.836,1.836,0,0,0-.175-1.1,3.419,3.419,0,0,0-.695-.659q-.4-.351-.766-.738a10.768,10.768,0,0,1-1.369-1.807.472.472,0,0,0-.122-.131c-.005-.039-.008-.078-.015-.118-.075-.6-1.03-.608-.953,0,.164,1.289.311,2.581.463,3.872q.1,3.782.209,7.563a.437.437,0,0,0,.283.41,10.1,10.1,0,0,0,2.943,3.415c.356.264.787-.172.7-.539" transform="translate(6.987 4.119)" fill="#0d296b"/>
    <path id="Path_1091" data-name="Path 1091" d="M137.557,77.8s-13.344-.272-13.286.339q.415,4.371.831,8.744c.058.606,11.782.564,11.782.564Z" transform="translate(7.372 4.612)" fill="#0d296b"/>
    <path id="Path_1092" data-name="Path 1092" d="M136.838,87.332a3.528,3.528,0,0,0-2.264-.447l-2.994-.094a.424.424,0,0,0-.452.423l-.3-.018c-.893-.054-1.788-.1-2.684-.079a6.641,6.641,0,0,1-2.627-.019c-.556-.245-1.041.576-.48.822a5.026,5.026,0,0,0,2.465.176,26.3,26.3,0,0,1,3.112.042,30.171,30.171,0,0,0,6.013-.008.479.479,0,0,0,.211-.8" transform="translate(7.403 5.149)" fill="#986047"/>
    <path id="Path_1093" data-name="Path 1093" d="M143.654,74.046a6.031,6.031,0,0,1-3.4,4.175.32.32,0,0,0-.1.082,19.743,19.743,0,0,1-3.179,1.077.369.369,0,0,0-.407-.054,8.232,8.232,0,0,1-1.108.359,20.776,20.776,0,0,1-4.254.264.783.783,0,0,0-.089.014c-.089-.005-.176-.01-.264-.016-1.7-.119-3.394-.275-5.091-.426l-2.343-1c-.61-.262-1.449-.578-1.681-1.268a.5.5,0,0,0-.826-.174,4.32,4.32,0,0,1-.978-1.425,13.907,13.907,0,0,1-1.024-2.377,14.51,14.51,0,0,1-.7-4.983c.019-.613-.934-.613-.953,0a15.462,15.462,0,0,0,.438,4.166c-.323-.216-.878.029-.731.5a12.611,12.611,0,0,0,2.966,4.981.869.869,0,0,0,.211.918,12.018,12.018,0,0,0,7.828,3.586,1.3,1.3,0,0,0,.379.1,18.285,18.285,0,0,0,5.089-.133,21.056,21.056,0,0,0,5.005-.731.389.389,0,0,0,.258-.22.314.314,0,0,0,.07-.007c.072-.029.139-.066.21-.1a6.386,6.386,0,0,0,3.688-2.6.433.433,0,0,0,.043-.37,8.811,8.811,0,0,0,1.2-2.245.345.345,0,0,0,.012-.123,6.7,6.7,0,0,0,.655-1.725c.132-.6-.787-.853-.919-.253" transform="translate(6.937 4.024)" fill="#cbaa68"/>
    <path id="Path_1094" data-name="Path 1094" d="M121.867,79.963a11.181,11.181,0,0,1-3.041-3.515.42.42,0,0,0-.246-.2l0-.9a.45.45,0,0,0-.516-.453c.019-.182.025-.367.048-.549.073-.608-.88-.6-.953,0a36.328,36.328,0,0,0,.151,9.731.365.365,0,0,0,.314.334.477.477,0,0,0,.924-.145q.013-3.21.023-6.418a12.39,12.39,0,0,0,2.813,2.948.479.479,0,0,0,.651-.171.488.488,0,0,0-.171-.653" transform="translate(6.935 4.383)" fill="#cfeafa"/>
    <path id="Path_1095" data-name="Path 1095" d="M143.426,68.688a.479.479,0,0,0-.936-.127,11.007,11.007,0,0,1-2.7,4.469.428.428,0,0,0-.525.448q.076,1.478.154,2.956c0,.02.013.031.015.049-.029.053-.058.1-.087.157-.3.537.525,1.018.824.482.076-.14.154-.279.231-.418,2.832-1.518,3.045-5.16,3.024-8.015" transform="translate(8.262 4.047)" fill="#0d296b"/>
    <path id="Path_1096" data-name="Path 1096" d="M143.457,77.287c.076-.494-.6-.883-.872-.367a14.671,14.671,0,0,1-2.449,3.341.513.513,0,0,0-.772.381c-.012.122-.019.245-.031.367-.085.075-.16.156-.246.229a.434.434,0,0,0,.163.747c-.109,1.314-.207,2.629-.276,3.945a.417.417,0,0,0,.107.284l0,.021c-.04.082-.079.162-.121.244a.477.477,0,1,0,.824.481c.163-.332.328-.663.493-.995a6.949,6.949,0,0,0,2.886-3.041c.731-1.819.007-3.764.3-5.637" transform="translate(8.24 4.549)" fill="#0d296b"/>
    <path id="Path_1097" data-name="Path 1097" d="M169.489,30.876a4.361,4.361,0,0,0-1.918-3.239,4.092,4.092,0,0,0-3.921.034,9.045,9.045,0,0,0-3.495,3.925q-.825,1.449-1.638,2.908a4.231,4.231,0,0,1-1.868.162A.508.508,0,0,0,156.1,35c-.89-.487-1.779-.962-2.7-1.381-.977-.441-1.97-.844-2.966-1.24a20.182,20.182,0,0,0-2.875-1.005,5.232,5.232,0,0,0-4.987,1.258,8.4,8.4,0,0,0-2.216,4.694,1.018,1.018,0,0,0-.128.4q-.788,7.481-2.187,14.878a.927.927,0,0,0,.244.833.919.919,0,0,0,.261.586l.193.148a.949.949,0,0,0,.482.131l.682.088c-.13,1.846-.217,3.7-.245,5.549a.963.963,0,0,0,.946.951c2.4,3.412,2.673,7.684,2.742,11.719.04,2.364.052,4.728.077,7.091.012,1.115.061,2.238.012,3.354a4.434,4.434,0,0,1-.924,2.854c-.408.457.265,1.132.675.674a4.064,4.064,0,0,0,.495-.7.372.372,0,0,0,.469-.227c2.217-5.052,1.947-10.662,2.126-16.056q.292-8.916,1.414-17.779c.4-3.161.892-6.31,1.449-9.448.977.317,1.941.669,2.894,1.047l2.743,1.272a16.434,16.434,0,0,0,4.781,1.752,4.221,4.221,0,0,0,3.867-1.446,22.319,22.319,0,0,0,2.485-4.456c.868-1.718,1.781-3.423,2.592-5.168a8.333,8.333,0,0,0,1-4.495" transform="translate(8.188 1.611)" fill="#0c3651"/>
    <path id="Path_1098" data-name="Path 1098" d="M178.66,51.274l-3.833-.5c-.089-.039-.182-.065-.269-.107a.466.466,0,0,0-.445.015l-22.929-2.971-7.75-1c-.607-.078-.6.876,0,.953l27.477,3.56,3.688.479a7.9,7.9,0,0,0,4.025.521l.036,0V52.22c.043-.006.085,0,.128-.01.582-.087.351-.874-.127-.936" transform="translate(8.482 2.771)" fill="#cbaa68"/>
    <path id="Path_1099" data-name="Path 1099" d="M177.1,46.081c-2.149-.22-4.313-.194-6.469-.209l-6.643-.044-13.048-.088-7.472-.051a.477.477,0,0,0,0,.953l26.214.177c1.648.011,3.305,0,4.956.057a.413.413,0,0,0,.334.456,3.106,3.106,0,0,0,2.37-.362.481.481,0,0,0-.24-.889" transform="translate(8.484 2.711)" fill="#cbaa68"/>
    <path id="Path_1100" data-name="Path 1100" d="M171.359,74.252a51.321,51.321,0,0,0-2.379-5.45,3.347,3.347,0,0,0-.719-1.19,3.57,3.57,0,0,0-1.121-.556,12.384,12.384,0,0,1-2.574-1.372,12.639,12.639,0,0,1-3.871-4.318.417.417,0,0,0-.326-.229.446.446,0,0,0-.555.064c-2.326,2.231-1.933,5.825-1.057,8.626a40.559,40.559,0,0,0,2.215,5.422c.337.7.679,1.418,1.059,2.109l-.014.005a.489.489,0,0,0-.172.651,5.257,5.257,0,0,0,2,2.212.472.472,0,0,0,.363.047,5.231,5.231,0,0,0,3.84,1.391,4.04,4.04,0,0,0,3.3-2.537,6.871,6.871,0,0,0,.008-4.875" transform="translate(9.378 3.623)" fill="#ffbe18"/>
    <path id="Path_1101" data-name="Path 1101" d="M122.878,96.39a8.3,8.3,0,0,0-7.212-6.977.361.361,0,0,0-.4.211,61.564,61.564,0,0,0-9.609-2.53,29.473,29.473,0,0,0-6.274-2.285.474.474,0,0,0-.287-.305L88.053,80.172a53.729,53.729,0,0,1-8.385-6.813,52.422,52.422,0,0,1-9.359-12.618,61.876,61.876,0,0,1-5.676-17.29c-.669-3.454-.992-7.137-2.678-10.287A9.064,9.064,0,0,0,56.346,28.5a.518.518,0,0,0-.4-.751,5.648,5.648,0,0,0-.9-.025c-.051,0-.1,0-.15.006-.09.005-.178.015-.266.024-4.693.369-8.779,4.824-8.42,9.6a.482.482,0,0,0,.448.448,21.117,21.117,0,0,0-.239,4.93,20.629,20.629,0,0,0,1.444,6.307c.222.554,1.1.352.919-.252a24.835,24.835,0,0,1-1.012-6.225C49.8,49.185,53.49,55.3,54.337,62.259a18.84,18.84,0,0,1-.339,6.8.426.426,0,0,0-.408.572A43.123,43.123,0,0,0,63.671,85.556,61.04,61.04,0,0,0,80.048,97.222a110.415,110.415,0,0,0,20.191,7.563,41.519,41.519,0,0,0,11.12,1.781,13.725,13.725,0,0,0,8.334-2.371,8.4,8.4,0,0,0,3.185-7.805M101.9,86.533c.453.153.9.32,1.344.5-1.461-.389-2.9-.85-4.317-1.368,1.005.265,2,.543,2.972.871" transform="translate(2.74 1.644)" fill="#ffbe18"/>
    <path id="Path_1102" data-name="Path 1102" d="M140.578,71.627c-1.007-3.916-5.672-6.175-9.556-6.005-2.391.1-5.321.426-7.4,1.57a7.222,7.222,0,0,0-2.165,3.079.518.518,0,0,0-.126.049.589.589,0,0,0-.265.653c.006.02.019.035.025.055a.61.61,0,0,0-.1.548,1.377,1.377,0,0,0,.215.382,5.407,5.407,0,0,0,.907.941,4.976,4.976,0,0,0,1.072.668,7.856,7.856,0,0,0,.715.561c.008.005.019.005.029.011a.9.9,0,0,0,.59.249c3.058.141,6.125.106,9.182-.028.731-.032,1.457-.092,2.185-.154a13.672,13.672,0,0,0,2.03-.195,2.391,2.391,0,0,0,1.779-1.264.9.9,0,0,0,.881-1.121" transform="translate(7.176 3.892)" fill="#d12e2c"/>
    <path id="Path_1103" data-name="Path 1103" d="M61.583,48.636c-.364-3.613-3.01-7.331-7.076-6.243-3.655.977-5.825,4.647-7.107,7.926-.844,2.155-1.438,4.423-2.235,6.6l2.36-14.925a1.03,1.03,0,0,0,.192-1.208c.01-.07.021-.139.032-.209C48,39,45.59,38.327,45.34,39.913c-.024.151-.048.3-.073.456l-7.111,3.266a47.321,47.321,0,0,0-6.92,3.446A19.06,19.06,0,0,0,26.35,52.5c-1.474,2.164-2.9,4.358-4.267,6.592-5.407,8.865-9.84,18.54-11.444,28.87a51.727,51.727,0,0,0-.053,16.153L7.94,113.7a1.166,1.166,0,0,0,.056.827q-3.27,7.316-7.015,14.4a1.1,1.1,0,0,0-.162.039q-.412.952-.819,1.907c.523,1.464,3.877,1.345,5.112,1.446l8.418.689,17.04,1.4a1.149,1.149,0,0,0,1.089-1.695c0-.01.01-.018.013-.029q2.523-6.968,5.043-13.934a1.026,1.026,0,0,0-.355-1.252q.359-.761.74-1.514a3.455,3.455,0,0,0,3.385-1.564c.029-.047.044-.1.07-.146a2.77,2.77,0,0,0,1.073-1.177,3.411,3.411,0,0,0,.309-1.846,7.6,7.6,0,0,0-.288-1.326,28,28,0,0,0,9.119-9.617c3.111-5.5,4.174-11.846,4.407-18.089.137-3.649,0-7.3-.161-10.95,1.115-2.882,2.21-5.775,3.24-8.69.844-2.388,1.676-4.787,2.387-7.218a18.018,18.018,0,0,0,.941-6.722" transform="translate(0 2.314)" fill="#fff"/>
    <path id="Path_1104" data-name="Path 1104" d="M162.195,58.107c-.845,1.692-2.362,4.725-1.477,6.5s6.5,5.61,8.859,5.61a61.889,61.889,0,0,0,7.382-.886l3.543-1.477,2.658,2.952,3.248,21.262,2.362,16.537-.436,1.791s6.048,2.933,9.3,3.523a12.9,12.9,0,0,1,4.135,1.181l13.879,20.966s30.415-17.717,29.233-20.081-12.4-17.716-12.4-17.716l-2.362-10.04L220.368,66.08l-8.859-21.852-3.838-5.021L191.429,24.148s-4.43-2.658-5.316-2.953-10.63-.886-10.63-.886l-9.745-.59-4.429,2.952.886,4.133,3.839,1.772,1.487,3.434,9.439,2.767h5.02l10.926,13.288,1.477,3.543-3.248-2.067-12.107-6.791L179.668,47l-3.3-.709.186,2.024,3.654,1.518-.56,1.6-3.058.289.074,1.953-5.315,3.543s-7.678-2.067-9.155.886" transform="translate(9.519 1.17)" fill="#fff"/>
    <path id="Path_1105" data-name="Path 1105" d="M192.456,55.054c-.015-.006-.026-.014-.04-.02a1.246,1.246,0,0,0-.155-.482,11.73,11.73,0,0,0-5.575-4.752l-7.139-5.87a1.47,1.47,0,0,0-2.022,0,1.45,1.45,0,0,0-.364.68,2.465,2.465,0,0,0-.947.114c-1.262.424-1.457,2.426,0,2.757.106.025.263.056.432.093a4.6,4.6,0,0,0,.191.883,1.444,1.444,0,0,0,.843,2.09,1.3,1.3,0,0,0,.989,1.047l3.607.56a32.837,32.837,0,0,0,5.1,2.849,1.211,1.211,0,0,0,.188.218,13.06,13.06,0,0,0,3.446,2.3,1.472,1.472,0,0,0,1.957-.513,1.44,1.44,0,0,0-.513-1.957" transform="translate(10.393 2.582)" fill="#dbdbdb"/>
    <path id="Path_1106" data-name="Path 1106" d="M195.817,105.754a28.03,28.03,0,0,1-6.656-6.5,1.792,1.792,0,0,0-1.185-1.767c-.173-.278-.35-.552-.512-.835a1.431,1.431,0,0,0-2.47,1.444q.439.758.914,1.487c0,.013,0,.024,0,.036.106.882.226,1.763.337,2.645a5.39,5.39,0,0,0,.73,2.586,5.619,5.619,0,0,0,2.068,1.539q1.149.62,2.3,1.236c1.4.755,3.413,1.9,4.766.371a1.457,1.457,0,0,0-.29-2.246" transform="translate(10.964 5.692)" fill="#dbdbdb"/>
    <path id="Path_1107" data-name="Path 1107" d="M185.564,73.2a1.21,1.21,0,0,0-1.169-1.024q-.084-1-.172-2a1.467,1.467,0,0,0-1.429-1.43,1.441,1.441,0,0,0-1.43,1.43q.62,7.262,1.242,14.521c.131,1.518,2.409,2.049,2.809.38a26.768,26.768,0,0,0,.149-11.876" transform="translate(10.759 4.079)" fill="#dbdbdb"/>
    <path id="Path_1108" data-name="Path 1108" d="M178.176,63.626a1.511,1.511,0,0,0-.462-.474,1.555,1.555,0,0,0,.05-.912,1.458,1.458,0,0,0-.658-.855,1.441,1.441,0,0,0-1.1-.144l-.342.144a1.453,1.453,0,0,0-.514.513q-1.133,1.554-2.27,3.1a1.426,1.426,0,0,0-.143,1.1,1.38,1.38,0,0,0,.658.855,3.444,3.444,0,0,0,.754.269,3.7,3.7,0,0,0,.808.078,3.939,3.939,0,0,0,1.575-.413,3.447,3.447,0,0,0,1.788-2.166,1.485,1.485,0,0,0-.144-1.1" transform="translate(10.245 3.63)" fill="#dbdbdb"/>
    <path id="Path_1109" data-name="Path 1109" d="M42.684,40.676a1.442,1.442,0,0,0-1.539,1.313c.011.332.005.662.01.993a1.5,1.5,0,0,0-.1.249q-2.369,8.2-3.932,16.6c-.214,1.146,1.16,1.786,2.059,1.4,3.012-1.3,3.5-5.324,4.019-8.147A50.774,50.774,0,0,0,44,42.215a1.473,1.473,0,0,0-1.313-1.539" transform="translate(2.201 2.413)" fill="#dbdbdb"/>
    <path id="Path_1110" data-name="Path 1110" d="M159.512,82.55c-1.185.767-3.548,4.311-3.548,4.311l3.543,8.564,3.839,1.772Z" transform="translate(9.253 4.897)" fill="#fff"/>
    <path id="Path_1111" data-name="Path 1111" d="M146.8,36.639c0-.017.005-.033,0-.051a3.218,3.218,0,0,0-1.215-1.947.425.425,0,0,0-.708.252,1.583,1.583,0,0,0-.525-.084.47.47,0,0,0-.512.051,1.575,1.575,0,0,0-1.785,1.772A1.9,1.9,0,0,0,143.022,38h0a.421.421,0,0,0-.212.779,3.672,3.672,0,0,0,3.589-.195.422.422,0,0,0,.084-.635,1.044,1.044,0,0,0,.123-.09,1.2,1.2,0,0,0,.2-1.216" transform="translate(8.427 2.048)" fill="#fff"/>
    <path id="Path_1112" data-name="Path 1112" d="M142.413,86.032c3.716-1.851,3.064-12.6,3.372-15.971q1.007-11,2.014-22c.022-.243-.358-.24-.38,0q-.841,9.178-1.682,18.354c-.311,3.4.158,17.452-3.517,19.282-.221.11-.028.441.194.332" transform="translate(8.431 2.841)" fill="#1e1e1e"/>
    <path id="Path_1113" data-name="Path 1113" d="M141.817,32.735c-2.269,3.071-2.227,7.565-2.694,11.24q-.617,4.851-1.089,9.721c-.024.247.363.247.387,0q.372-3.844.837-7.679c.485-4.041.392-9.7,2.893-13.087.147-.2-.186-.394-.334-.2" transform="translate(8.189 1.937)" fill="#1e1e1e"/>
    <path id="Path_1114" data-name="Path 1114" d="M149.27,31.994c-2.652-1.1-5.456-1.439-7.632.792-.174.178.1.451.273.273,2.086-2.137,4.747-1.737,7.256-.693.23.1.329-.279.1-.373" transform="translate(8.399 1.847)" fill="#1e1e1e"/>
    <path id="Path_1115" data-name="Path 1115" d="M148,45.754a15.643,15.643,0,0,1,.367-2.971c.489-.236,3.306,1.1,3.843,1.279,2.349.781,5.571,2.63,8.087,2.619,1.876-.008,2.47-1.292,3.246-2.713,1.573-2.885,3.135-5.844,4.521-8.822,1.588-3.414-.017-9.521-5.007-7.757-2.23.788-3.675,4.081-4.891,5.886-.951,1.411-.656,1.454-2.157,1.339-2.3-.18-4.981-1.529-7.1-2.378-.231-.092-.332.282-.1.373a74.183,74.183,0,0,0,8.289,2.709.2.2,0,0,0,.218-.089c1.912-2.838,5.637-10.736,9.974-6.376,3.353,3.371-1.084,9.075-2.715,12.259a19.1,19.1,0,0,1-1.9,3.715c-1.811,2.071-3.412,1.174-5.27.556l-9.193-3.058a.2.2,0,0,0-.245.186q-.175,1.622-.349,3.246c-.026.247.36.245.387,0" transform="translate(8.757 1.606)" fill="#1e1e1e"/>
    <path id="Path_1116" data-name="Path 1116" d="M142.971,81.309a4.6,4.6,0,0,0,1.928-3.336c.035-.244-.337-.347-.373-.1a4.258,4.258,0,0,1-1.751,3.1.194.194,0,0,0,.2.334" transform="translate(8.465 4.611)" fill="#1e1e1e"/>
    <path id="Path_1117" data-name="Path 1117" d="M142.941,34.4q-.707.992-1.406,1.989a.16.16,0,0,0,0,.16c.2.359.394.72.594,1.078.149.267.353.893.6,1.075.431.312,1.412.21,1.929.26s1.133.26,1.553-.04a9.337,9.337,0,0,0,1.489-2.091.19.19,0,0,0,0-.2l-.917-1.224c-.213-.282-.51-.9-.818-1.085a2.456,2.456,0,0,0-1.02-.113,5.857,5.857,0,0,0-1.591-.047c-.173.039-.145.27,0,.323a6.3,6.3,0,0,0,2.088.164,1.422,1.422,0,0,1,.352.02c-.214-.083-.139-.055-.035.051a10.349,10.349,0,0,1,.742.981,12.124,12.124,0,0,1,.743.979c.11.18.2-.057-.077.224-.485.49-.748,1.511-1.322,1.881.271-.176-.286-.113-.467-.129-.46-.04-.918-.082-1.378-.121a3.741,3.741,0,0,1-1.039-.088c-.2-.088.215.164.019-.013a1.7,1.7,0,0,1-.231-.406c-.232-.408-.451-.828-.7-1.228-.265-.424-.221-.2-.115-.439a13.713,13.713,0,0,1,1.236-1.828c.1-.144-.131-.272-.23-.135" transform="translate(8.395 2.024)" fill="#1e1e1e"/>
    <path id="Path_1118" data-name="Path 1118" d="M143.748,35.695a1.162,1.162,0,0,0-.4,1.645,1.294,1.294,0,0,0,1.671.37,1.175,1.175,0,0,0,.593-1.588,1.3,1.3,0,0,0-1.7-.6c-.185.092-.047.341.13.31a1.063,1.063,0,0,1,1.238.408.836.836,0,0,1-.377,1.177.993.993,0,0,1-1.257-.178.88.88,0,0,1,.246-1.311c.135-.1.006-.334-.136-.232" transform="translate(8.492 2.1)" fill="#1e1e1e"/>
    <path id="Path_1119" data-name="Path 1119" d="M148.22,41.629c.3-.859-.086-.793.547-.877a7.332,7.332,0,0,1,2.176.71l5.829,1.9c2.49.814,5.042,1.544,7.133-.668a.118.118,0,0,0-.166-.166c-2.821,2.4-5.522.975-8.481.011-2.294-.747-4.586-1.508-6.886-2.24a.156.156,0,0,0-.194.147q-.108.555-.217,1.109a.134.134,0,0,0,.258.072" transform="translate(8.777 2.39)" fill="#1e1e1e"/>
    <path id="Path_1120" data-name="Path 1120" d="M57.43,75.747c9.42,16.3,31.244,25.192,49,28.135,21.631,3.587,44.443-5.638,58.284-22.362.283-.34-.206-.833-.489-.488-13.915,16.848-36.911,25.978-58.63,22.087-17.355-3.108-38.557-11.632-47.881-27.536a.163.163,0,0,0-.282.165" transform="translate(3.406 4.479)" fill="#1e1e1e"/>
    <path id="Path_1121" data-name="Path 1121" d="M59.551,82.637c5.676,7.89,14.494,13.114,23.211,17.029,9.076,4.076,19.054,7.227,29.04,7.807,18.9,1.1,42.129-8.442,52.841-24.375.249-.372-.351-.719-.6-.351-10.567,15.719-33.592,25.161-52.243,24.094-9.451-.54-18.918-3.427-27.581-7.129-9.081-3.881-18.435-9.129-24.351-17.262-.139-.192-.46-.008-.32.186" transform="translate(3.531 4.887)" fill="#1e1e1e"/>
    <line id="Line_42" data-name="Line 42" x1="4.133" y2="25.248" transform="translate(59.206 83.983)" fill="#fff"/>
    <path id="Path_1122" data-name="Path 1122" d="M59.837,79.234c-1.625,8.363-2.744,16.823-4.315,25.2-.1.516.709.72.78.215,1.186-8.471,2.827-16.879,3.961-25.356.032-.24-.379-.3-.426-.057" transform="translate(3.293 4.691)" fill="#1e1e1e"/>
    <path id="Path_1123" data-name="Path 1123" d="M56.5,101.986c-.732,4.266-1.4,7.8-5.648,9.854-3.662,1.769-8.742,2.261-11.855-.79-.472-.463-1.2.264-.727.727,3.226,3.151,8.284,2.881,12.2,1.219,4.951-2.1,6.168-5.842,6.663-10.924.034-.358-.571-.443-.632-.086" transform="translate(2.261 6.037)" fill="#1e1e1e"/>
    <path id="Path_1124" data-name="Path 1124" d="M178.433,46.116c-.471-3.87-.929-7.743-1.422-11.61-.026-.209-.357-.214-.333,0,.451,3.873.939,7.74,1.41,11.61.027.217.371.219.344,0" transform="translate(10.481 2.038)" fill="#1e1e1e"/>
    <path id="Path_1125" data-name="Path 1125" d="M175.579,45.638l2.756.2c.221.017.22-.327,0-.343l-2.756-.2c-.221-.016-.22.329,0,.344" transform="translate(10.406 2.687)" fill="#1e1e1e"/>
    <path id="Path_1126" data-name="Path 1126" d="M187.295,100.879c-1.972-10.782-3.622-21.625-5.377-32.444-.071-.435-.734-.251-.663.183,1.753,10.827,3.613,21.645,5.148,32.506.082.578,1,.345.892-.246" transform="translate(10.753 4.045)" fill="#1e1e1e"/>
    <path id="Path_1127" data-name="Path 1127" d="M184.865,109.686a12.115,12.115,0,0,0,2.29-11c-.151-.609-1.085-.352-.941.258a11.218,11.218,0,0,1-2.073,10.015c-.415.505.3,1.233.724.724" transform="translate(10.917 5.834)" fill="#1e1e1e"/>
    <path id="Path_1128" data-name="Path 1128" d="M169.3,111.179c5.181,3.006,12.313,2.31,16.456-2.076.453-.481-.273-1.21-.728-.727-3.834,4.086-10.41,4.774-15.252,1.988a.472.472,0,0,0-.476.815" transform="translate(10.03 6.42)" fill="#1e1e1e"/>
    <path id="Path_1129" data-name="Path 1129" d="M165.125,103.025c.99,3.019,1.726,6.493,4.4,8.5.489.367.97-.461.481-.822-2.445-1.8-3.109-5.193-4.015-7.916-.182-.548-1.053-.315-.871.24" transform="translate(9.795 6.079)" fill="#1e1e1e"/>
    <path id="Path_1130" data-name="Path 1130" d="M158.494,81.448q3.713,12.114,7.41,24.234c.173.565,1.065.322.888-.245q-3.777-12.1-7.552-24.195c-.148-.474-.893-.272-.746.206" transform="translate(9.402 4.804)" fill="#1e1e1e"/>
    <path id="Path_1131" data-name="Path 1131" d="M148.82,32.095l10.04-.195a.185.185,0,0,0,0-.37l-10.04.2a.183.183,0,0,0,0,.367" transform="translate(8.818 1.871)" fill="#1e1e1e"/>
    <path id="Path_1132" data-name="Path 1132" d="M133.023,32.463l8.853-.16a.183.183,0,0,0,0-.367q-4.427.083-8.853.162a.182.182,0,0,0,0,.364" transform="translate(7.881 1.895)" fill="#1e1e1e"/>
    <path id="Path_1133" data-name="Path 1133" d="M61.846,33.553l24.412,0a.171.171,0,0,0,0-.341l-24.412,0a.166.166,0,0,0,0,.333" transform="translate(3.659 1.971)" fill="#1e1e1e"/>
    <path id="Path_1134" data-name="Path 1134" d="M42.894,56.817q.556-4.165,1.113-8.328c.481-3.6.547-7.726,2.375-10.926A.164.164,0,0,0,46.1,37.4c-1.669,2.924-1.78,6.327-2.217,9.6l-1.309,9.815c-.026.2.3.2.322,0" transform="translate(2.525 2.214)" fill="#1e1e1e"/>
    <path id="Path_1135" data-name="Path 1135" d="M38.534,107.948c6.733,3.585,15.91,1.483,18.635-6.289.1-.273-.309-.424-.452-.191-4.039,6.528-10.692,9.618-17.828,5.874-.4-.21-.753.393-.354.606" transform="translate(2.276 6.013)" fill="#1e1e1e"/>
    <line id="Line_43" data-name="Line 43" y1="2.952" transform="translate(43.26 114.694)" fill="#fff"/>
    <path id="Path_1136" data-name="Path 1136" d="M41.16,111.237c.013-.714.015-1.428.015-2.142,0-.286.086-.761-.144-.985a.252.252,0,0,0-.349,0c-.231.225-.146.7-.145.985,0,.714,0,1.428.016,2.142a.3.3,0,0,0,.607,0" transform="translate(2.404 6.409)" fill="#1e1e1e"/>
    <line id="Line_44" data-name="Line 44" y2="3.543" transform="translate(41.488 114.103)" fill="#fff"/>
    <path id="Path_1137" data-name="Path 1137" d="M38.939,107.726a31.125,31.125,0,0,0,.031,3.543.21.21,0,0,0,.419,0,31.126,31.126,0,0,0,.031-3.543.241.241,0,0,0-.481,0" transform="translate(2.308 6.377)" fill="#1e1e1e"/>
    <path id="Path_1138" data-name="Path 1138" d="M50.883,107.155c0,.787-.2,2.756-.2,2.756" transform="translate(3.007 6.357)" fill="#fff"/>
    <path id="Path_1139" data-name="Path 1139" d="M50.678,107.167c-.014.6-.073,1.2-.132,1.8a2.249,2.249,0,0,0-.028,1.06.213.213,0,0,0,.362,0c.181-.239.129-.784.148-1.06.043-.6.089-1.2.086-1.8a.218.218,0,0,0-.436,0" transform="translate(2.993 6.345)" fill="#1e1e1e"/>
    <path id="Path_1140" data-name="Path 1140" d="M164.906,102.273c1.374,5.38,8.53,7.976,13.6,7.637,6.214-.416,9.967-5.942,9.771-11.846a.257.257,0,0,0-.514,0c-.665,5.863-3.5,11.173-10.181,11.208-4.549.023-10.845-2.356-12.124-7.148a.284.284,0,0,0-.548.15" transform="translate(9.782 5.803)" fill="#1e1e1e"/>
    <path id="Path_1141" data-name="Path 1141" d="M170.46,107.434a12.441,12.441,0,0,0,.59,4.133" transform="translate(10.112 6.374)" fill="#fff"/>
    <path id="Path_1142" data-name="Path 1142" d="M170.207,107.449a12.819,12.819,0,0,0,.591,4.209.278.278,0,0,0,.535-.148,14.279,14.279,0,0,1-.59-4.06.268.268,0,0,0-.536,0" transform="translate(10.097 6.359)" fill="#1e1e1e"/>
    <line id="Line_45" data-name="Line 45" y2="3.543" transform="translate(182.344 114.989)" fill="#fff"/>
    <path id="Path_1143" data-name="Path 1143" d="M171.866,108.564a17.073,17.073,0,0,0,.061,3.606.234.234,0,0,0,.448,0,17,17,0,0,0,.063-3.606.286.286,0,0,0-.572,0" transform="translate(10.192 6.424)" fill="#1e1e1e"/>
    <line id="Line_46" data-name="Line 46" y2="2.952" transform="translate(192.975 114.398)" fill="#fff"/>
    <path id="Path_1144" data-name="Path 1144" d="M181.88,108.009l0,1.59a5.61,5.61,0,0,0,.066,1.43.254.254,0,0,0,.486,0,5.608,5.608,0,0,0,.067-1.43l0-1.59a.306.306,0,0,0-.612,0" transform="translate(10.789 6.39)" fill="#1e1e1e"/>
    <line id="Line_47" data-name="Line 47" y1="1.771" transform="translate(73.97 95.795)" fill="#fff"/>
    <path id="Path_1145" data-name="Path 1145" d="M70,92.221q0-.99,0-1.979a.157.157,0,0,0-.314,0v.208a.156.156,0,0,0,.313,0c0-.07,0-.139,0-.208a.157.157,0,0,0-.314,0q0,.988,0,1.979a.161.161,0,0,0,.321,0" transform="translate(4.134 5.345)" fill="#1e1e1e"/>
    <line id="Line_48" data-name="Line 48" y2="2.952" transform="translate(69.836 91.07)" fill="#fff"/>
    <path id="Path_1146" data-name="Path 1146" d="M65.639,85.987a14.611,14.611,0,0,0,.056,3.022.261.261,0,0,0,.5,0,14.762,14.762,0,0,0,.056-3.022.306.306,0,0,0-.612,0" transform="translate(3.891 5.084)" fill="#1e1e1e"/>
    <line id="Line_49" data-name="Line 49" y2="4.725" transform="translate(64.521 85.164)" fill="#fff"/>
    <path id="Path_1147" data-name="Path 1147" d="M60.648,80.409a33.284,33.284,0,0,0,.047,4.789.243.243,0,0,0,.465,0,33.135,33.135,0,0,0,.047-4.789.279.279,0,0,0-.558,0" transform="translate(3.594 4.754)" fill="#1e1e1e"/>
    <line id="Line_50" data-name="Line 50" y2="2.952" transform="translate(161.969 92.251)" fill="#fff"/>
    <path id="Path_1148" data-name="Path 1148" d="M152.673,87.1a14.887,14.887,0,0,0,.006,3.018.248.248,0,0,0,.475,0,14.964,14.964,0,0,0,.006-3.018.244.244,0,0,0-.487,0" transform="translate(9.052 5.153)" fill="#1e1e1e"/>
    <line id="Line_51" data-name="Line 51" y2="2.362" transform="translate(159.606 94.613)" fill="#fff"/>
    <path id="Path_1149" data-name="Path 1149" d="M150.408,89.33c0,.425-.007.847-.013,1.272a3.527,3.527,0,0,0,.066,1.153.235.235,0,0,0,.449,0,3.526,3.526,0,0,0,.065-1.153l-.013-1.272a.277.277,0,0,0-.554,0" transform="translate(8.921 5.284)" fill="#1e1e1e"/>
    <path id="Path_1150" data-name="Path 1150" d="M86.238,33.136c10.689-17.188,37.819-17.2,48.535-.035.146.233.517.019.371-.217-10.89-17.445-38.413-17.434-49.277.036-.146.235.225.45.371.216" transform="translate(5.092 1.175)" fill="#1e1e1e"/>
    <path id="Path_1151" data-name="Path 1151" d="M102.655,67.768c-15.182-4.676-23.9-20.575-16.259-35.36.126-.245-.244-.463-.371-.216-7.745,14.989,1.04,31.224,16.515,35.991.265.081.377-.333.114-.414" transform="translate(4.934 1.903)" fill="#1e1e1e"/>
    <path id="Path_1152" data-name="Path 1152" d="M117.883,65.532a31.247,31.247,0,0,1-6.6,1.272c-.273.022-.276.451,0,.429A31.783,31.783,0,0,0,118,65.946c.263-.082.151-.5-.113-.414" transform="translate(6.59 3.887)" fill="#1e1e1e"/>
    <path id="Path_1153" data-name="Path 1153" d="M132.034,32.375a22.809,22.809,0,0,1,.275,21.693c-.125.246.245.463.37.216a23.277,23.277,0,0,0-.274-22.125c-.13-.245-.5-.028-.371.216" transform="translate(7.831 1.901)" fill="#1e1e1e"/>
    <path id="Path_1154" data-name="Path 1154" d="M123.729,59.275c-10.239,5.44-23.785,4.624-32.253-3.847-7.768-7.771-7.55-19.9.875-27.082,8.371-7.135,21.737-7.979,31.431-3.188,4.548,2.247,8.462,5.923,10.15,10.8,2.418,6.988-.733,13.252-5.522,18.33-.189.2.113.5.3.3,6.374-6.756,9.051-15.69,2.99-23.642-5.65-7.415-16.007-9.93-24.9-8.958-8.308.908-16.89,5.374-20.233,13.42-3.3,7.939-.074,16.692,6.4,21.933,8.785,7.112,21.219,7.482,30.971,2.3.245-.129.028-.5-.216-.371" transform="translate(5.058 1.293)" fill="#1e1e1e"/>
    <path id="Path_1155" data-name="Path 1155" d="M121.3,61.37c-10.03,4.02-22.564,2.956-30.352-5.131C84.934,50,82.566,43.075,85.351,34.561c.086-.263-.327-.376-.414-.113-2.827,8.642-.439,15.718,5.7,22.094,7.892,8.195,20.591,9.322,30.77,5.243.252-.1.142-.517-.114-.414" transform="translate(4.969 2.035)" fill="#1e1e1e"/>
    <path id="Path_1156" data-name="Path 1156" d="M132.085,32.568c3.9,7.043,1.431,14.931-3.1,21.007-.165.22.207.435.37.216,4.632-6.212,7.055-14.292,3.1-21.44-.135-.243-.5-.026-.371.216" transform="translate(7.65 1.913)" fill="#1e1e1e"/>
    <path id="Path_1157" data-name="Path 1157" d="M128.261,40.137a89.232,89.232,0,0,0-10.411,1.328c-3.981.944.6,4.718,1.838,6.218.708.859,1.307,2.157,2.52,2.236,1.543.1,3.155-1.583,4.076-2.6.846-.932,5.184-6.645,2.02-7.236a.165.165,0,0,0-.087.319c2.975,1.172-2.916,7.6-4.184,8.439s-2.174.924-3.123-.22q-1.479-1.784-2.959-3.57c-.279-.336-.935-.872-1.07-1.29a1.741,1.741,0,0,1,.989-1.994c.815-.448,2.394-.335,3.311-.458,2.369-.317,4.744-.606,7.107-.963.119-.018.091-.225-.029-.211" transform="translate(6.897 2.378)" fill="#1e1e1e"/>
    <path id="Path_1158" data-name="Path 1158" d="M128.361,42.643c-1.9.213-3.8.482-5.7.729a30.653,30.653,0,0,0-5.481.819c-.2.066-.111.385.087.315,3.416-1.211,7.53-1.106,11.119-1.651.119-.018.091-.225-.029-.211" transform="translate(6.945 2.53)" fill="#1e1e1e"/>
    <path id="Path_1159" data-name="Path 1159" d="M90.4,41.222c2.4.154,4.8.236,7.193.347a14.423,14.423,0,0,1,3.073.158c2.421.7.889,2.248.093,3.424-.839,1.238-1.6,2.6-2.546,3.761s-1.717,1.129-3.1.316c-1.315-.77-7.431-6.54-4.627-7.97a.166.166,0,0,0-.126-.3c-3.067.873,1.633,6.153,2.559,7.027,1,.947,2.67,2.456,4.195,2.246,1.15-.16,1.559-1.368,2.149-2.25,1.06-1.579,5.43-5.965,1.406-6.554A87.925,87.925,0,0,0,90.4,41.008c-.14,0-.138.206,0,.214" transform="translate(5.3 2.429)" fill="#1e1e1e"/>
    <path id="Path_1160" data-name="Path 1160" d="M90.15,43.657c1.724-.047,3.462.108,5.185.189a30.725,30.725,0,0,1,5.631.367c.194.046.275-.254.083-.3-3.486-.791-7.344-.189-10.9-.6-.217-.025-.228.352,0,.346" transform="translate(5.338 2.569)" fill="#1e1e1e"/>
    <path id="Path_1161" data-name="Path 1161" d="M108.041,44.282a77.3,77.3,0,0,0-5.907,7.883c-.469.742-.979,1.24-.5,2.051.938,1.585,5.193,1.5,6.667,1.585,2.16.119,11.26.665,10-3.683-.531-1.838-2.639-3.694-3.859-5.1-1.537-1.778-3.21-3.177-5.659-3-.26.018-.264.422,0,.407,2.644-.153,4.3,1.571,5.845,3.435a21.879,21.879,0,0,1,2.835,3.484c2.022,3.98-4.295,4.085-6.567,4.158-2.1.066-5.053.273-6.962-.575-2.66-1.181-2.117-1.769-1.018-3.379.7-1.017,1.435-2.005,2.175-2.99,1.037-1.381,2.108-2.735,3.149-4.113.087-.115-.109-.268-.2-.156" transform="translate(6.018 2.61)" fill="#1e1e1e"/>
    <path id="Path_1162" data-name="Path 1162" d="M117.189,53.367c-2.128-2.515-4.547-6.747-8.386-6.287-.255.03-.264.43,0,.406,3.709-.343,6.015,3.682,8.112,6.155.161.19.433-.085.273-.273" transform="translate(6.443 2.791)" fill="#1e1e1e"/>
    <path id="Path_1163" data-name="Path 1163" d="M108.4,47.334c-1.913,2.308-3.73,4.729-5.44,7.191-.111.159.151.31.261.151,1.706-2.462,3.575-4.8,5.381-7.186.087-.115-.109-.268-.2-.156" transform="translate(6.106 2.806)" fill="#1e1e1e"/>
    <path id="Path_1164" data-name="Path 1164" d="M90.653,37.224c2.808.023,5.62-.055,8.428-.073,1.663-.01,3.565-.281,2.586-2.345-.664-1.4-1.551-2.733-2.315-4.079-.381-.671-.8-1.927-1.449-2.4-1.869-1.341-4.869,2.014-5.855,3.192-.805.961-3.839,4.916-1.439,5.753.18.064.285-.209.127-.3-2.471-1.467,2.944-6.786,4.182-7.644,1.029-.712,2.167-1.3,3.068-.3a22.1,22.1,0,0,1,2.126,3.709c.61,1.064,1.72,2.173,1.114,3.295-.626,1.157-1.971.84-3.191.858-2.461.034-4.924.036-7.383.115a.107.107,0,0,0,0,.214" transform="translate(5.322 1.662)" fill="#1e1e1e"/>
    <path id="Path_1165" data-name="Path 1165" d="M100.983,36.485q-.893-1.576-1.789-3.151c-.37-.649-.684-1.672-1.373-2.043-1.083-.585-2.613.493-3.41,1.1a14.8,14.8,0,0,0-3.891,4.577c-.13.232.228.442.356.209.882-1.6,5.168-7.558,7.231-5.043a32.966,32.966,0,0,1,2.592,4.521.165.165,0,0,0,.284-.166" transform="translate(5.368 1.846)" fill="#1e1e1e"/>
    <path id="Path_1166" data-name="Path 1166" d="M127.619,36.983c-2.4-.071-4.795-.07-7.192-.1-.8-.01-2.251.243-3.007-.159-1.7-.908.2-3.057.731-3.99a35.408,35.408,0,0,1,2.06-3.61c.815-1.09,1.916-.608,2.978.086,1.271.835,6.855,6.242,4.346,7.738-.156.091-.054.365.127.3,3.288-1.155-3.77-9.811-6.744-9.153-.775.171-.917.685-1.284,1.335q-1.271,2.245-2.538,4.488c-.942,1.666-1.265,3.057,1.207,3.219,3.075.2,6.234.088,9.316.058a.108.108,0,0,0,0-.216" transform="translate(6.905 1.665)" fill="#1e1e1e"/>
    <path id="Path_1167" data-name="Path 1167" d="M117.786,36.491a25.514,25.514,0,0,1,2.295-4.02c1.946-2.251,5.924,3.034,6.851,4.487.142.224.5.015.356-.209-1.025-1.589-4.485-6.333-6.946-5.055-.635.329-.9,1.191-1.233,1.784l-1.61,2.845a.167.167,0,0,0,.288.167" transform="translate(6.969 1.867)" fill="#1e1e1e"/>
    <path id="Path_1168" data-name="Path 1168" d="M108.1,35.873c-1.952-1.118-3.162-3.943-4.112-5.882-.41-.839-1.314-2.18-1.318-3.107-.011-1.845,1.856-2.086,3.339-2.326a20.69,20.69,0,0,1,7.006,0c1.469.273,3.4.744,3.46,2.531a4.625,4.625,0,0,1-1.1,2.632c-1.567,2.324-3.5,6.495-6.778,6.221-.263-.021-.256.38,0,.407,1.951.2,3.271-1.026,4.407-2.493a26.386,26.386,0,0,0,3.608-5.508c1.755-4.306-4.875-4.488-7.536-4.416-2.244.06-7.751.079-6.536,3.51.949,2.677,2.729,7.275,5.431,8.65.146.074.274-.14.129-.222" transform="translate(6.073 1.419)" fill="#1e1e1e"/>
    <path id="Path_1169" data-name="Path 1169" d="M103.009,28.684c1.55-1.343,4.321-1.416,6.221-1.48,2.246-.074,4.858.058,6.839,1.243a.193.193,0,0,0,.195-.334c-2.3-1.346-5.452-1.393-8.036-1.2-1.823.14-4.015.287-5.443,1.542-.155.136.07.358.224.225" transform="translate(6.095 1.592)" fill="#1e1e1e"/>
    <path id="Path_1170" data-name="Path 1170" d="M142.808,46.773c.338-1.882,3.144-1.022,4.993-.993q6.014.1,12.028.191,6.138.094,12.273.182c1.319.02,5.122-.459,5.535.522.3.713-.521.2-1.234.309a23.99,23.99,0,0,1-3.967-.076l-12.041-.234q-8.755-.168-17.513-.346a.215.215,0,0,0,0,.429q17.514.329,35.027.631a.19.19,0,0,0,.181-.237Q178,46.576,177.907,46a.187.187,0,0,0-.18-.137c-11.615-.159-23.23-.335-34.845-.445a.14.14,0,0,0-.135.1q-.1.593-.186,1.184c-.024.161.218.233.248.069" transform="translate(8.457 2.694)" fill="#1e1e1e"/>
    <path id="Path_1171" data-name="Path 1171" d="M176.819,52.157q-17.223-2.466-34.445-4.944c-.27-.038-.387.374-.114.413q17.228,2.461,34.458,4.9c.24.035.344-.334.1-.368" transform="translate(8.43 2.801)" fill="#1e1e1e"/>
    <path id="Path_1172" data-name="Path 1172" d="M142.217,47.756c1.417-1.673,2.933-.857,5.122-.568l11.68,1.543q9.369,1.238,18.739,2.464c.234.032.233-.338,0-.368q-10.073-1.317-20.147-2.615-5.874-.76-11.751-1.519c-2.16-.276-2.468-.774-3.825.88-.1.127.074.309.182.182" transform="translate(8.424 2.753)" fill="#1e1e1e"/>
    <path id="Path_1173" data-name="Path 1173" d="M47.017,46.286c-.944-5.835-1.762-15.823,5.851-17.909,4.7-1.287,8.913,2.66,10,6.811.636,2.419.57,4.975.932,7.44,1.637,11.094,7.681,23.336,15.836,31.051,9.234,8.737,20.665,11.635,32.505,15.032,3.042.874,7.673,1.575,9.488,4.373,1.179,1.817,1.346,5.994.632,8.139-1.4,4.218-7.767,4.894-11.449,4.8a.231.231,0,0,0,0,.462c5.8.213,11.867-1.364,12.2-7.709.154-2.95-.2-6.136-2.926-7.781-4.965-3-11.819-3.7-17.334-5.287C86,80.881,73.957,70.226,67.588,53.96c-2.246-5.737-3.09-11.16-4.026-17.173-.663-4.247-2.354-7.232-6.655-8.582a7.484,7.484,0,0,0-8.66,3.232c-3.1,4.529-2.418,9.853-1.592,14.949.039.237.4.136.362-.1" transform="translate(2.726 1.652)" fill="#1e1e1e"/>
    <path id="Path_1174" data-name="Path 1174" d="M58.041,76a53.593,53.593,0,0,1-3.151-5.514c-.089-.179-.358-.021-.267.157a45.688,45.688,0,0,0,3.2,5.482c.091.129.3.01.215-.125" transform="translate(3.239 4.177)" fill="#1e1e1e"/>
    <path id="Path_1175" data-name="Path 1175" d="M55.661,67.533c8.6,16.094,24.554,26.278,41.913,30.84,5.52,1.451,24.248,4.675,24.391-4.8.005-.272-.4-.268-.419,0-.6,10.632-23.736,4.665-29.367,2.763C77.027,91.218,63.612,81.628,55.972,67.352c-.109-.206-.421-.023-.31.181" transform="translate(3.301 3.99)" fill="#1e1e1e"/>
    <path id="Path_1176" data-name="Path 1176" d="M48.437,31.1c-1.8,2.943-1.243,7.19-.91,10.422.019.19.32.191.3,0-.344-3.193-.926-7.4.8-10.31a.11.11,0,0,0-.191-.111" transform="translate(2.799 1.842)" fill="#1e1e1e"/>
    <path id="Path_1177" data-name="Path 1177" d="M116.81,99.013a26.082,26.082,0,0,0-.025-3.839.114.114,0,0,0-.228,0,25.935,25.935,0,0,0-.026,3.839.14.14,0,0,0,.28,0" transform="translate(6.91 5.64)" fill="#1e1e1e"/>
    <path id="Path_1178" data-name="Path 1178" d="M117.644,93.783c-.005,1.378-.018,2.756-.011,4.133a.151.151,0,0,0,.3,0c.007-1.377-.005-2.755-.011-4.133a.14.14,0,0,0-.28,0" transform="translate(6.978 5.556)" fill="#1e1e1e"/>
    <path id="Path_1179" data-name="Path 1179" d="M115.134,96.292a9.884,9.884,0,0,0,.02,1.806.128.128,0,0,0,.244,0,9.791,9.791,0,0,0,.02-1.806.142.142,0,0,0-.284,0" transform="translate(6.828 5.704)" fill="#1e1e1e"/>
    <path id="Path_1180" data-name="Path 1180" d="M114.285,96.849a3.3,3.3,0,0,0,.029.921.132.132,0,0,0,.252,0,3.343,3.343,0,0,0,.028-.921.154.154,0,0,0-.308,0" transform="translate(6.779 5.737)" fill="#1e1e1e"/>
    <path id="Path_1181" data-name="Path 1181" d="M46.848,38.867c.106,1.885-.452,3.73-.3,5.61.016.186.3.192.3,0-.068-1.883.427-3.729.294-5.61-.013-.187-.305-.191-.294,0" transform="translate(2.76 2.297)" fill="#1e1e1e"/>
    <path id="Path_1182" data-name="Path 1182" d="M47.43,43.011A14.6,14.6,0,0,0,46.854,46a.123.123,0,0,0,.24.033c.27-.958.372-1.978.609-2.948a.142.142,0,0,0-.273-.075" transform="translate(2.78 2.546)" fill="#1e1e1e"/>
    <path id="Path_1183" data-name="Path 1183" d="M139.8,75.1a10.94,10.94,0,0,0,3.265-13.938c-2.165-4.286-7.119-6.3-11.713-6.349C120.384,54.686,111.8,67.663,122.558,75c.21.144.408-.2.2-.341-10.649-7.211-1.783-19.648,8.6-19.553,10.093.094,18.221,12.374,8.233,19.627-.221.16-.01.531.215.369" transform="translate(6.978 3.252)" fill="#1e1e1e"/>
    <path id="Path_1184" data-name="Path 1184" d="M139.012,74.546a10.113,10.113,0,0,0,2.76-13.267c-2.094-3.675-6.505-5.377-10.572-5.415-10.115-.1-17.931,11.8-8.072,18.588.211.144.409-.2.2-.341-9.86-6.737-1.586-18.024,7.872-17.956,9.193.066,16.977,11.218,7.6,18.022-.22.16-.008.531.215.369" transform="translate(7.035 3.314)" fill="#1e1e1e"/>
    <path id="Path_1185" data-name="Path 1185" d="M117.616,66.326q.14,2.337.281,4.676c.014.233.38.234.364,0l-.309-4.676c-.015-.214-.35-.216-.336,0" transform="translate(6.978 3.925)" fill="#1e1e1e"/>
    <path id="Path_1186" data-name="Path 1186" d="M143.016,72.527q-.068-3.52-.141-7.038a.144.144,0,0,0-.288,0q.075,3.52.156,7.038a.137.137,0,0,0,.273,0" transform="translate(8.459 3.877)" fill="#1e1e1e"/>
    <path id="Path_1187" data-name="Path 1187" d="M138.984,87.785c1.69-1.393,3.378-2.789,4.036-4.956.7-2.319.371-4.977.339-7.352a.14.14,0,0,0-.281,0c.042,2.092.435,4.575-.094,6.63-.594,2.3-2.55,3.93-4.3,5.375-.212.175.091.476.3.3" transform="translate(8.223 4.47)" fill="#1e1e1e"/>
    <path id="Path_1188" data-name="Path 1188" d="M140.66,77.163l.1-1.958a.205.205,0,0,0-.2-.2q-9.55.054-19.1.127a.226.226,0,0,0-.222.224q.04.547.077,1.092c.019.292.478.292.456,0-.079-.97-.334-.57.155-.873.4-.25,1.769-.014,2.242-.018l7.22-.06q3.5-.03,6.99-.06c2.185-.021,1.988-.431,1.882,1.731-.012.26.39.257.4,0" transform="translate(7.192 4.449)" fill="#1e1e1e"/>
    <path id="Path_1189" data-name="Path 1189" d="M121.592,80.407c.337,3.287.282,6.89,1.06,10.1a.225.225,0,0,0,.269.153c5.364-.727,11.206-.062,16.626-.055a.159.159,0,0,0,.157-.156c.238-3.3.5-6.6.745-9.894.02-.256-.382-.256-.4,0q-.13,1.947-.255,3.894c-.08,1.251.292,4.381-.365,5.451-.335.547-.4.393-1.712.4q-3.073,0-6.144,0-3.049,0-6.1,0a6.894,6.894,0,0,1-1.975.007c-.9-.357-.1.311-.436-.262-.667-1.124-.415-4.041-.547-5.327q-.221-2.151-.442-4.306c-.032-.307-.517-.31-.485,0" transform="translate(7.213 4.756)" fill="#1e1e1e"/>
    <path id="Path_1190" data-name="Path 1190" d="M140.855,75.472q-.046-.879-.09-1.756a.211.211,0,0,0-.209-.207q-9.55.057-19.1.139a.217.217,0,0,0-.215.214v1.784a.215.215,0,0,0,.429,0c0-2-.114-1.57,1.969-1.586L131.007,74q3.683-.029,7.367-.059c2.053-.019,1.964-.452,2.073,1.529.014.262.423.263.409,0" transform="translate(7.193 4.361)" fill="#1e1e1e"/>
    <path id="Path_1191" data-name="Path 1191" d="M140.8,56.256q.051-.977.1-1.958a.2.2,0,0,0-.2-.2q-9.551.054-19.1.127a.225.225,0,0,0-.224.222c.028.365.052.73.076,1.093.02.291.48.291.457,0-.078-.97-.334-.57.155-.874.4-.25,1.77-.015,2.243-.017q3.612-.03,7.22-.06l6.99-.06c2.185-.022,1.988-.431,1.882,1.73-.012.261.389.258.4,0" transform="translate(7.2 3.209)" fill="#1e1e1e"/>
    <path id="Path_1192" data-name="Path 1192" d="M140.946,57.977q-.019-2.584-.038-5.167a.216.216,0,0,0-.211-.212q-9.55.062-19.1.143a.216.216,0,0,0-.214.215l.246,5.317c.013.274.442.276.429,0-.061-1.34-.184-2.692-.186-4.033,0-1.535-.5-.756.631-1.077,2.45-.7,6.09-.047,8.645-.067,2.668-.02,6.044-.641,8.645-.068,1.2.266.439-.441.7.725a21.454,21.454,0,0,1,.042,4.225.2.2,0,0,0,.409,0" transform="translate(7.201 3.12)" fill="#1e1e1e"/>
    <path id="Path_1193" data-name="Path 1193" d="M137.9,78.5l.092-1.01a.2.2,0,0,0-.2-.2q-6.822.037-13.643.1a.216.216,0,0,0-.215.214c.016.156.031.31.046.466.028.271.457.274.429,0-.051-.524-.381-.074.161-.255a5.731,5.731,0,0,1,1.513-.012l5.157-.042q2.4-.019,4.806-.043c.319,0,1.145-.175,1.415-.016.371.219.12-.1.04.8-.022.258.379.256.4,0" transform="translate(7.352 4.585)" fill="#1e1e1e"/>
    <path id="Path_1194" data-name="Path 1194" d="M124.286,81.392c.171,2.311.358,4.62.539,6.93a.247.247,0,0,0,.24.242c3.876.05,7.778,0,11.664.06a.159.159,0,0,0,.156-.155q.34-3.469.706-6.933c.025-.253-.376-.254-.4,0-.078.909-.153,1.82-.232,2.73-.087.993.141,3.064-.359,3.923-.244.419.287-.083-.126.123a3.843,3.843,0,0,1-1.2-.013q-2.19-.027-4.377-.058c-1.4-.018-2.8-.007-4.2-.049a3.916,3.916,0,0,1-1.346-.1c-.487-.209.091.327-.059.049-.459-.854-.22-2.818-.3-3.781-.077-.99-.153-1.982-.233-2.972-.026-.3-.5-.308-.479,0" transform="translate(7.373 4.815)" fill="#1e1e1e"/>
    <path id="Path_1195" data-name="Path 1195" d="M125.035,87.2c3.869.049,7.778,0,11.664.1a.2.2,0,0,0,0-.4c-3.889.006-7.795-.144-11.664-.193a.244.244,0,0,0,0,.487" transform="translate(7.404 5.144)" fill="#1e1e1e"/>
    <path id="Path_1196" data-name="Path 1196" d="M117.8,70.227c.539,5.875,5.09,9.306,10.773,9.525,6.813.261,14.237.237,16.117-7.554.058-.247-.321-.353-.381-.1-1.731,7.02-7.986,7.265-13.914,7.276-6.13.011-11.514-2.335-12.352-9.143-.018-.153-.257-.158-.243,0" transform="translate(6.988 4.159)" fill="#1e1e1e"/>
    <path id="Path_1197" data-name="Path 1197" d="M117.694,65.966c-1.854,7.066,1.07,15.57,9.04,16.724,4.131.6,11.332.929,14.8-1.92,3.825-3.145,3.678-8.255,3.253-12.7-.024-.251-.418-.254-.4,0,.32,3.5.679,7.343-1.4,10.435-3.014,4.479-11,4.372-15.88,3.789-8.056-.963-10.82-9.171-9.178-16.26a.121.121,0,0,0-.234-.065" transform="translate(6.95 3.908)" fill="#1e1e1e"/>
    <path id="Path_1198" data-name="Path 1198" d="M117.105,71.342c-.025,2.462.162,4.924.088,7.387-.057,1.872-1.142,5.43,1.15,6.347.114.047.224-.068.228-.173a12.422,12.422,0,0,1,.193-2.651c-.354.109,2.76,2.949,3.1,3.13.213.113.4-.21.19-.324a6.879,6.879,0,0,1-3.2-3.575c-.064-.154-.325-.2-.365,0-.144.711.14,2.858-.274,3.3-.918.982-.814-3.648-.806-3.775.054-.847.089-1.7.109-2.553.056-2.357.011-4.761-.151-7.112a.131.131,0,0,0-.262,0" transform="translate(6.934 4.225)" fill="#1e1e1e"/>
    <path id="Path_1199" data-name="Path 1199" d="M170.84,73.022a5.8,5.8,0,0,1,.2,3.831,4.18,4.18,0,0,1-2.843,2.426,5.011,5.011,0,0,1-5.276-2.268.188.188,0,0,0-.324.19,5.187,5.187,0,0,0,6.093,2.361c3.083-1.082,3.277-3.928,2.523-6.642a.194.194,0,0,0-.373.1" transform="translate(9.644 4.318)" fill="#1e1e1e"/>
    <path id="Path_1200" data-name="Path 1200" d="M170.839,79.784c-2.208,2.2-6.514,1.592-8.145-.942a30.539,30.539,0,0,1-2.543-5.625,28.832,28.832,0,0,1-2.222-7.867c-.02-.236-.382-.244-.375,0,.113,3.927,2.05,8.025,3.664,11.514.713,1.541,1.379,3.162,2.953,3.946,2.195,1.094,5.173,1.025,6.948-.747a.2.2,0,0,0-.28-.28" transform="translate(9.347 3.866)" fill="#1e1e1e"/>
    <path id="Path_1201" data-name="Path 1201" d="M170.595,74.137c.483,1.815.65,3.575-.526,5.17-.151.2.192.4.341.2,1.229-1.667,1.069-3.565.558-5.471a.193.193,0,0,0-.373.1" transform="translate(10.087 4.384)" fill="#1e1e1e"/>
    <path id="Path_1202" data-name="Path 1202" d="M168.174,67.793c.862,2.1,1.739,4.2,2.521,6.328.09.248.492.133.394-.108-.852-2.107-1.7-4.216-2.573-6.315-.086-.208-.429-.118-.342.094" transform="translate(9.976 4.009)" fill="#1e1e1e"/>
    <path id="Path_1203" data-name="Path 1203" d="M163.371,78.333c-1.378-2.805-2.625-5.671-3.837-8.551-1.268-3.011-2.98-6.449.839-8.661a.16.16,0,0,0-.161-.275c-2.569,1.493-3.052,3.762-2.043,6.453,1.424,3.8,3.158,7.545,4.951,11.181.084.167.334.02.251-.147" transform="translate(9.354 3.608)" fill="#1e1e1e"/>
    <path id="Path_1204" data-name="Path 1204" d="M186.8,70.959c-1.293,4.448-1.064,8.781-1.4,13.35-.324,4.432-1.159,8.429.613,12.663.115.275.572.154.454-.125-1.788-4.276-.9-8.147-.6-12.538.318-4.513.092-8.8,1.378-13.225a.236.236,0,0,0-.454-.125" transform="translate(10.97 4.2)" fill="#1e1e1e"/>
    <path id="Path_1205" data-name="Path 1205" d="M176.682,62.592c3.152,4.3,8.881,8.11,9.634,13.708a.235.235,0,1,0,.463-.062c-.767-5.7-6.5-9.534-9.692-13.881-.176-.242-.584-.007-.4.236" transform="translate(10.479 3.693)" fill="#1e1e1e"/>
    <path id="Path_1206" data-name="Path 1206" d="M210.687,67.7c-3.242-3.034-5.632-6.869-9.9-8.573-2.13-.851-4.429-1.154-6.6-1.855-3.018-.971-5.336-2.78-8.066-4.275-2.947-1.614-5.9-2.363-9.15-1.2-1.577.567-2.937,1.589-4.469,2.245-3.371,1.442-5.928.074-9,1.182-4.4,1.583-3.849,7.379-1,10.21,4.436,4.4,13.153,3.7,18.232,1.046.268-.14.031-.546-.236-.4-5.209,2.725-15.246,3.451-18.76-2.4-.829-1.38-1.448-3.63-.82-5.236,1.879-4.813,4.808-2.626,7.7-2.809,2.217-.14,3.81-1.133,5.788-2.068,4.394-2.075,7.743-2.352,12.1.181a46.309,46.309,0,0,0,6.2,3.485c3.506,1.378,7.239,1.542,10.453,3.69C205.976,62.8,207.92,65.7,210.384,68c.2.189.505-.114.3-.3" transform="translate(9.508 3.039)" fill="#1e1e1e"/>
    <path id="Path_1207" data-name="Path 1207" d="M164.886,19.994c4.35-.333,9.333.557,13.744.738,6.185.254,10.876,1.648,15.153,6.295,5.1,5.536,11.682,10.165,15.948,16.408,2.3,3.365,3.148,7.929,4.747,11.686,1.716,4.035,3.628,7.985,5.52,11.941,4.862,10.167,10.014,20.572,11.306,31.908.034.294.5.3.467,0-1.207-10.635-5.794-20.448-10.345-30.009-2.731-5.735-5.576-11.433-7.881-17.357-1.244-3.2-1.867-6.411-3.977-9.158a84.764,84.764,0,0,0-8.734-9.078c-3.1-2.977-5.967-6.643-9.3-9.319a18.6,18.6,0,0,0-10.163-3.629c-2.758-.26-5.53-.155-8.293-.281s-5.417-.836-8.19-.621c-.3.023-.306.5,0,.476" transform="translate(9.768 1.156)" fill="#1e1e1e"/>
    <path id="Path_1208" data-name="Path 1208" d="M162.228,27.763a5.162,5.162,0,0,1,2.942-7.78c.3-.07.173-.529-.125-.459a5.619,5.619,0,0,0-3.209,8.467c.163.24.556.014.392-.229" transform="translate(9.547 1.158)" fill="#1e1e1e"/>
    <path id="Path_1209" data-name="Path 1209" d="M180.909,33.842a48.171,48.171,0,0,1-12.1-2.2c-.279-.09-.4.349-.121.438A48.97,48.97,0,0,0,180.909,34.3c.294.017.293-.441,0-.458" transform="translate(9.998 1.876)" fill="#1e1e1e"/>
    <path id="Path_1210" data-name="Path 1210" d="M195.749,57.866c-.765-10.179-9.587-16.055-14.765-24.034-.16-.245-.553-.017-.393.23,5.146,7.944,13.795,13.733,14.763,23.8.025.249.413.254.4,0" transform="translate(10.711 2.001)" fill="#1e1e1e"/>
    <path id="Path_1211" data-name="Path 1211" d="M190.468,48.714c-3.286-3.075-7.781-4.712-11.566-7.088a.142.142,0,0,0-.173.221c3.258,3.125,8.074,4.094,11.5,7.109.164.144.4-.091.243-.243" transform="translate(10.601 2.468)" fill="#1e1e1e"/>
    <path id="Path_1212" data-name="Path 1212" d="M163.671,25.966c1.394,1.225,3.892,2.763,5.79,1.787.153-.077.04-.289-.11-.261a6.326,6.326,0,0,1-5.465-1.742c-.147-.126-.363.086-.215.215" transform="translate(9.707 1.525)" fill="#1e1e1e"/>
    <path id="Path_1213" data-name="Path 1213" d="M155.817,87.541c.791,3.809,2.8,10.439,7.735,10.13.456-.029.462-.735,0-.715-4.838.209-6.035-6.017-7.227-9.555a.264.264,0,0,0-.508.14" transform="translate(9.243 5.174)" fill="#1e1e1e"/>
    <path id="Path_1214" data-name="Path 1214" d="M180.889,34.732a7.1,7.1,0,0,1,2.069-4.022.158.158,0,0,0-.224-.224,5.953,5.953,0,0,0-2.065,4.246.11.11,0,0,0,.219,0" transform="translate(10.718 1.806)" fill="#1e1e1e"/>
    <path id="Path_1215" data-name="Path 1215" d="M190.856,40.778c-1.322.536-1.732,2.456-1.264,3.71a.124.124,0,0,0,.242-.034c.087-1.23-.3-2.8,1.128-3.424.141-.062.039-.309-.106-.252" transform="translate(11.237 2.419)" fill="#1e1e1e"/>
    <path id="Path_1216" data-name="Path 1216" d="M186.726,104.765c3.355,4.179,11.013,4.974,15.962,4.783.506-.019.506-.812,0-.786-4.907.261-12.087-.458-15.57-4.389-.24-.271-.61.12-.392.392" transform="translate(11.074 6.187)" fill="#1e1e1e"/>
    <path id="Path_1217" data-name="Path 1217" d="M213.393,130.09q-3.211-5.263-6.621-10.407c-2.386-3.6-4.929-8.381-8.506-10.968-.341-.247-.762.3-.45.583,6.2,5.536,10.566,14.164,14.871,21.206.274.448.982.038.707-.413" transform="translate(11.729 6.446)" fill="#1e1e1e"/>
    <path id="Path_1218" data-name="Path 1218" d="M226.234,92.078c3.561,7.006,8.785,13.326,13.3,19.735.286.4.959,0,.663-.388-4.74-6.277-9.683-12.733-13.469-19.639-.179-.326-.664-.038-.5.291" transform="translate(13.419 5.437)" fill="#1e1e1e"/>
    <path id="Path_1219" data-name="Path 1219" d="M186.036,91.459c-.029,6.969,7.864,15.946,15.1,15.879.173,0,.163-.242,0-.261-7.074-.85-14.8-8.224-14.825-15.619a.136.136,0,0,0-.271,0" transform="translate(11.037 5.418)" fill="#1e1e1e"/>
    <path id="Path_1220" data-name="Path 1220" d="M31.336,83.391a43.8,43.8,0,0,1,7.421-17.72c2.683-3.672,4.025-7.089,5.563-11.325,1.6-4.423,4.338-11.9,10.38-11.166,5.161.626,4.271,7.533,3.679,11.18-1.2,7.375-5.267,14.111-5.881,21.527-.6,7.235.344,14.662-2.653,21.505a29.342,29.342,0,0,1-15.825,15.293c-.526.208-.3,1.068.236.858A29.656,29.656,0,0,0,52.678,90.266c.945-6.85-.181-13.9,1.971-20.56,1.088-3.373,2.495-6.581,3.4-10.016,1.118-4.229,3.639-13.052-.736-16.325-5.4-4.037-10.654,3.493-12.4,7.575-2.289,5.353-3.691,10.251-7.18,15.019a37.253,37.253,0,0,0-6.713,17.39c-.021.177.278.217.311.042" transform="translate(1.84 2.504)" fill="#1e1e1e"/>
    <path id="Path_1221" data-name="Path 1221" d="M34.917,111.461c-1.015,3.094-1.845,6.25-2.736,9.382-.767,2.7-2.322,5.978-2.424,8.805a.322.322,0,0,0,.6.161c1.4-2.463,1.781-6.065,2.541-8.77.88-3.133,1.825-6.257,2.579-9.425a.289.289,0,0,0-.556-.154" transform="translate(1.765 6.6)" fill="#1e1e1e"/>
    <path id="Path_1222" data-name="Path 1222" d="M1.314,130.153q2.948-6.766,5.645-13.643c1.234-3.158,2.614-6.374,3.033-9.761.748-6.04-.118-12,.862-18.089.948-5.889,2.043-11.767,4.9-17.064,2.371-4.393,5.369-8.41,7.742-12.808,2.31-4.283,4.623-9.139,8.956-11.733a147.663,147.663,0,0,1,15.291-7.647c.465-.208.063-.885-.4-.683C38.479,42.6,29.634,46.293,24.711,54.936,19.634,63.847,13.45,72.131,11.268,82.3A71.638,71.638,0,0,0,9.274,98.089c.066,5.378.007,10.154-1.872,15.241-2.064,5.588-4.334,11.1-6.578,16.618-.113.279.37.485.49.207" transform="translate(0.048 2.295)" fill="#1e1e1e"/>
    <path id="Path_1223" data-name="Path 1223" d="M40.284,59.361A7.674,7.674,0,0,0,36.3,60.985c-.1.09.031.265.147.191a11.456,11.456,0,0,1,3.912-1.547c.178-.037.1-.292-.073-.268" transform="translate(2.151 3.522)" fill="#1e1e1e"/>
    <path id="Path_1224" data-name="Path 1224" d="M34.533,113.395c1.463-.075,3.309-.383,4.143-1.738.121-.194-.127-.468-.326-.326a8.439,8.439,0,0,1-1.654,1.046,7.153,7.153,0,0,1-2.163.452c-.36.028-.368.586,0,.567" transform="translate(2.032 6.602)" fill="#1e1e1e"/>
    <path id="Path_1225" data-name="Path 1225" d="M100.313,83.015c-4.928-2.417-7.839-8.327-3.518-12.936,2.823-3.011,7.407-3.82,11.317-3.162,4.69.789,9.349,3.885,9.675,9.073.425,6.744-7.37,9.635-12.959,8.553a.135.135,0,0,0-.071.261c4.471,1.222,11.714-.944,13.265-5.8,1.79-5.6-3.191-10.63-8.127-12.066-4.724-1.373-11.018-.458-14.061,3.795-3.4,4.753-.443,10.3,4.382,12.447.112.049.21-.111.1-.166" transform="translate(5.598 3.936)" fill="#1e1e1e"/>
    <path id="Path_1226" data-name="Path 1226" d="M107.558,74.7c-.949.617-2.915.6-3.569-.494-.6-1.017.676-1.876,1.568-1.935,1.341-.09,2.745,1.053,1.932,2.444-.062.108.074.271.185.184,1.172-.9,0-2.494-1.059-2.846-1.129-.376-2.719.006-3.054,1.29-.511,1.963,3.04,2.706,4.113,1.507.07-.077-.02-.213-.117-.15" transform="translate(6.141 4.266)" fill="#1e1e1e"/>
    <path id="Path_1227" data-name="Path 1227" d="M117.485,77.221c-4.552,8.123-19.208,5.845-22.474-2.136-.074-.18-.373-.1-.3.082,3.386,8.225,18.412,10.6,22.938,2.151.058-.109-.1-.207-.166-.1" transform="translate(5.618 4.448)" fill="#1e1e1e"/>
    <path id="Path_1228" data-name="Path 1228" d="M151.565,54.869a10.8,10.8,0,0,1-2.445,9.26c-.192.233.14.567.334.334,2.051-2.479,3.289-6.5,2.279-9.64a.087.087,0,0,0-.167.047" transform="translate(8.843 3.249)" fill="#1e1e1e"/>
    <path id="Path_1229" data-name="Path 1229" d="M152.428,62.41a11.946,11.946,0,0,0,1.845-4.771.157.157,0,0,0-.29-.079,12.022,12.022,0,0,0-.612,2.164,10.027,10.027,0,0,1-1.107,2.591.1.1,0,0,0,.164.1" transform="translate(9.032 3.41)" fill="#1e1e1e"/>
    <path id="Path_1230" data-name="Path 1230" d="M139.58,29.395c3.086-3.261,7.112-2.485,10.785-.8a.165.165,0,0,0,.166-.285c-3.42-2.1-8.289-2.182-11.067.97-.069.078.043.193.115.115" transform="translate(8.272 1.59)" fill="#1e1e1e"/>
    <path id="Path_1231" data-name="Path 1231" d="M143.45,25.959a12.755,12.755,0,0,1,4.667.033c.158.033.226-.211.067-.244a12.469,12.469,0,0,0-4.784.032c-.118.021-.067.2.05.179" transform="translate(8.503 1.515)" fill="#1e1e1e"/>
    <path id="Path_1232" data-name="Path 1232" d="M163.732,13.5a9.8,9.8,0,0,0-5.119,9.539c.022.186.3.2.3,0-.032-3.737,1.507-7.513,4.922-9.362.117-.063.014-.236-.1-.177" transform="translate(9.406 0.8)" fill="#1e1e1e"/>
    <path id="Path_1233" data-name="Path 1233" d="M157.892,17.445a6.217,6.217,0,0,0-.62,5.394.116.116,0,0,0,.224-.06,6.724,6.724,0,0,1,.561-5.236.1.1,0,0,0-.165-.1" transform="translate(9.309 1.032)" fill="#1e1e1e"/>
    <path id="Path_1234" data-name="Path 1234" d="M175.541,47.361c.946.208,2.661.169,2.988,1.335.232.829-.352,1.333-1.12,1.388a6.674,6.674,0,0,1-1.591-.257.167.167,0,0,0-.128.3,2.962,2.962,0,0,0,2.076.278,1.331,1.331,0,0,0,1.142-1.358c-.017-1.663-2.1-1.807-3.332-1.956-.153-.018-.185.235-.036.268" transform="translate(10.408 2.794)" fill="#1e1e1e"/>
    <path id="Path_1235" data-name="Path 1235" d="M58.407,91.62c1.923-.444,5.44-1.683,4.906-4.314-.058-.293-.441-.228-.53,0a4.364,4.364,0,0,1-1.747,2.586,10.269,10.269,0,0,1-2.8,1.121.315.315,0,0,0,.167.607" transform="translate(3.442 5.168)" fill="#1e1e1e"/>
    <path id="Path_1236" data-name="Path 1236" d="M82.9,64.807c-6.79-7.128-10.334-15.355-10.532-24.452l.715-.016c.194,8.913,3.671,16.98,10.334,23.975Z" transform="translate(4.293 2.393)" fill="#ca8f4c"/>
    <rect id="Rectangle_1499" data-name="Rectangle 1499" width="0.716" height="7.335" transform="translate(167.784 34.805) rotate(-46.586)" fill="#1c478b"/>
    <rect id="Rectangle_1500" data-name="Rectangle 1500" width="0.716" height="6.506" transform="translate(167.624 36.721) rotate(-76.018)" fill="#1c478b"/>
    <rect id="Rectangle_1501" data-name="Rectangle 1501" width="0.715" height="7.336" transform="translate(169.176 32.648) rotate(-46.586)" fill="#1c478b"/>
    <rect id="Rectangle_1502" data-name="Rectangle 1502" width="0.716" height="6.506" transform="translate(169.016 34.565) rotate(-76.018)" fill="#1c478b"/>
    <rect id="Rectangle_1503" data-name="Rectangle 1503" width="0.715" height="6.384" transform="translate(171.466 30.666) rotate(-44.516)" fill="#1c478b"/>
    <rect id="Rectangle_1504" data-name="Rectangle 1504" width="0.716" height="6.505" transform="translate(170.463 32.101) rotate(-76.016)" fill="#1c478b"/>
    <path id="Path_1237" data-name="Path 1237" d="M74.94,43.155,73.2,40.541,70.355,43.03l-.471-.538,3.458-3.024,2.194,3.291Z" transform="translate(4.146 2.341)" fill="#ca8f4c"/>
    <path id="Path_1238" data-name="Path 1238" d="M144.425,45.295a1.789,1.789,0,0,0-1.9-.393,2.069,2.069,0,0,0-.6,2.992,1.974,1.974,0,0,0,2.019.4.186.186,0,0,0,.132-.174c0-.107.108-.172.178-.232.175-.153-.081-.407-.254-.254-.192.167-.274.215-.284.486l.132-.173a1.618,1.618,0,0,1-1.673-.305,1.57,1.57,0,0,1-.268-1.314,1.345,1.345,0,0,1,2.342-.8c.136.091.309-.126.178-.232" transform="translate(8.396 2.656)" fill="#1e1e1e"/>
    <path id="Path_1239" data-name="Path 1239" d="M130.652,27.508c3.69,1.567,4.824,6.536,4.668,10.164-.005.127.189.126.2,0,.273-3.693-1.058-8.771-4.8-10.318-.087-.035-.153.117-.065.154" transform="translate(7.748 1.622)" fill="#1e1e1e"/>
    <path id="Path_1240" data-name="Path 1240" d="M134.877,28.978c2.524,3.688,2.266,8.085,2.362,12.347a.094.094,0,0,0,.188,0c.021-4.281.16-8.781-2.363-12.457-.077-.114-.266-.006-.186.109" transform="translate(8 1.71)" fill="#1e1e1e"/>
    <path id="Path_1241" data-name="Path 1241" d="M83.588,56.84a23.363,23.363,0,0,1-3.1-15.682c.683-4.969,2.566-8.181,5.075-12.363a.112.112,0,0,0-.193-.113C82.343,33.439,80.588,36.947,80,42.644A22.78,22.78,0,0,0,83.42,56.938a.1.1,0,0,0,.168-.1" transform="translate(4.739 1.698)" fill="#1e1e1e"/>
    <path id="Path_1242" data-name="Path 1242" d="M78.942,43.648c-1.592-10.484,6.631-19.791,15.132-24.295.125-.066.014-.251-.111-.189-8.7,4.31-17.027,14.159-15.185,24.528.019.109.18.061.164-.044" transform="translate(4.658 1.136)" fill="#1e1e1e"/>
    <path id="Path_1243" data-name="Path 1243" d="M108.487,29.845c6.5.313,15.566,2.941,15.22,11.134-.007.175.261.174.27,0,.471-8.288-8.9-11.164-15.491-11.307-.112,0-.111.168,0,.174" transform="translate(6.431 1.76)" fill="#1e1e1e"/>
    <path id="Path_1244" data-name="Path 1244" d="M123.323,34.246c.768,2.073,1.912,4.058,1.972,6.325a11.911,11.911,0,0,1-3.13,8.338.105.105,0,0,0,.149.148,10.667,10.667,0,0,0,3.106-6.613c.411-3.11-.754-5.445-1.9-8.252-.049-.119-.242-.071-.2.054" transform="translate(7.246 2.024)" fill="#1e1e1e"/>
    <path id="Path_1245" data-name="Path 1245" d="M107.141,83.172c2.788,1.985,8.761,3.352,11.911,1.59.124-.069.015-.238-.108-.184-3.3,1.421-8.818.442-11.713-1.56-.1-.066-.182.089-.09.155" transform="translate(6.354 4.924)" fill="#1e1e1e"/>
    <path id="Path_1246" data-name="Path 1246" d="M109.552,82.812a6.767,6.767,0,0,0,5.2.606.108.108,0,0,0-.057-.209,7.4,7.4,0,0,1-5.038-.574c-.118-.06-.22.114-.1.177" transform="translate(6.496 4.902)" fill="#1e1e1e"/>
  </g>
</svg>
